<?xml version="1.0" encoding="UTF-8" standalone="no"?>
<svg
   sodipodi:docname="bear.svg"
   inkscape:version="1.4.2 (ebf0e940d0, 2025-05-08)"
   id="svg3019"
   version="1.1"
   viewBox="0 0 26.458334 15.345835"
   height="58"
   width="100"
   xmlns:inkscape="http://www.inkscape.org/namespaces/inkscape"
   xmlns:sodipodi="http://sodipodi.sourceforge.net/DTD/sodipodi-0.dtd"
   xmlns="http://www.w3.org/2000/svg"
   xmlns:svg="http://www.w3.org/2000/svg"
   xmlns:rdf="http://www.w3.org/1999/02/22-rdf-syntax-ns#"
   xmlns:cc="http://creativecommons.org/ns#"
   xmlns:dc="http://purl.org/dc/elements/1.1/">
  <defs
     id="defs3013">
    <inkscape:path-effect
       effect="bspline"
       id="path-effect4"
       is_visible="true"
       lpeversion="1.3"
       weight="33.333333"
       steps="2"
       helper_size="0"
       apply_no_weight="true"
       apply_with_weight="true"
       only_selected="false"
       uniform="false" />
  </defs>
  <sodipodi:namedview
     inkscape:window-maximized="1"
     inkscape:window-y="32"
     inkscape:window-x="0"
     inkscape:window-height="1131"
     inkscape:window-width="1920"
     fit-margin-bottom="0"
     fit-margin-right="0"
     fit-margin-left="0"
     fit-margin-top="0"
     showgrid="false"
     inkscape:document-rotation="0"
     inkscape:current-layer="layer1"
     inkscape:document-units="mm"
     inkscape:cy="21.036426"
     inkscape:cx="41.984463"
     inkscape:zoom="11.313709"
     inkscape:pageshadow="2"
     inkscape:pageopacity="0.0"
     borderopacity="1.0"
     bordercolor="#666666"
     pagecolor="#ffffff"
     id="base"
     units="px"
     inkscape:showpageshadow="2"
     inkscape:pagecheckerboard="0"
     inkscape:deskcolor="#d1d1d1" />
  <metadata
     id="metadata3016">
    <rdf:RDF>
      <cc:Work
         rdf:about="">
        <dc:format>image/svg+xml</dc:format>
        <dc:type
           rdf:resource="http://purl.org/dc/dcmitype/StillImage" />
        <dc:title />
      </cc:Work>
    </rdf:RDF>
  </metadata>
  <g
     transform="translate(-50.567649,-61.93607)"
     id="layer1"
     inkscape:groupmode="layer"
     inkscape:label="Calque 1">
    <g
       id="g2920"
       transform="matrix(0.26454738,0,0,0.26686026,37.545283,-6.9646861)">
      <g
         transform="translate(0.76334)"
         id="g2914">
        <path
           id="path546-3"
           d="m 98.47332,308.19681 v 7.5 l -50.000001,-25 v -7.5 z"
           fill="#bb8d5d" />
        <path
           id="path548-6"
           d="m 98.47332,315.69681 v -7.5 l 50,-25 v 7.5 z"
           fill="#9e7758" />
      </g>
      <path
         id="path208"
         d="m 49.23666,283.19681 50,-25 50,25 -50,25 z"
         fill="#8bb54a" />
    </g>
    <path
       style="fill:#aa4400;stroke-linecap:round"
       d="M 95.248701,17.520416 C 82.628062,21.15813 71.158129,25.278397 61.506975,30.994876 51.85582,36.711356 44.023757,44.023757 36.896744,53.192389 29.769731,62.361022 23.348181,73.385301 18.504051,86.729926 13.65992,100.07455 10.393467,115.73868 8.2405243,133.07368 c -2.1529426,17.33501 -3.1922687,36.33983 -3.0437775,60.17085 0.1484912,23.83102 1.4847674,52.48672 2.6354824,76.46613 1.1507151,23.97941 2.1158029,43.28117 3.8975658,58.90861 1.781763,15.62744 4.380078,27.57969 8.20344,42.13072 3.823361,14.55102 8.871517,31.6999 12.991815,44.69182 4.120299,12.99192 7.312514,21.82619 7.906406,27.61686 0.593893,5.79068 -1.410522,8.53747 -3.303636,11.0245 -1.893113,2.48703 -3.674815,4.71416 -3.860398,7.12695 -0.185582,2.4128 1.22493,5.01111 4.343018,7.20118 3.118089,2.19007 7.943531,3.97177 11.469908,5.08536 3.526378,1.11359 5.753506,1.55902 6.347407,3.22942 0.593902,1.67041 -0.445425,4.56568 -0.927978,7.64663 -0.482552,3.08096 -0.408314,6.34741 0.928013,9.1314 1.336327,2.78398 3.934645,5.08535 8.277691,6.6815 4.343046,1.59614 10.430526,2.48699 17.668917,3.04379 7.23839,0.55679 15.627235,0.77951 24.276172,0.51967 8.64894,-0.25985 17.55745,-1.00223 23.94204,-1.78174 6.3846,-0.77952 10.24495,-1.59613 12.99181,-3.97182 2.74687,-2.37569 4.38009,-6.31028 5.08536,-12.69493 0.70527,-6.38465 0.48256,-15.21892 0,-26.54051 -0.48256,-11.32159 -1.22494,-25.12978 0.0372,-35.00363 1.26209,-9.87386 4.52854,-15.81286 8.27766,-19.52483 3.74911,-3.71197 7.98066,-5.19672 12.76913,-5.90199 4.78847,-0.70527 10.13358,-0.63103 15.85005,1.2621 5.71646,1.89314 11.80394,5.60501 15.73863,8.98292 3.93468,3.37791 5.71639,6.42165 6.45877,9.02004 0.74239,2.59838 0.44544,4.75127 -2.00449,7.60951 -2.44994,2.85825 -7.05267,6.42165 -12.21234,10.13364 -5.15967,3.71199 -10.87596,7.57234 -15.18186,11.98961 -4.30589,4.41728 -7.20115,9.39119 -9.02002,14.77358 -1.81886,5.38239 -2.56124,11.17292 -2.26427,16.07274 0.29697,4.89982 1.63325,8.90865 4.38013,12.13807 2.74689,3.22942 6.90419,5.67926 15.03349,7.42389 8.1293,1.74463 20.23002,2.78395 30.36373,2.00442 10.13372,-0.77954 18.29985,-3.37785 26.31774,-6.97849 8.0179,-3.60064 15.88708,-8.20337 23.31105,-16.85235 7.42398,-8.64897 14.40231,-21.3436 20.41572,-32.85076 6.01342,-11.50715 11.06157,-21.82617 15.14475,-36.34009 4.08318,-14.51392 7.20116,-33.22179 10.24499,-51.78174 3.04383,-18.55994 6.01333,-36.97086 8.72308,-59.65116 2.70975,-22.6803 5.15959,-49.62853 6.57014,-64.88469 1.41054,-15.25617 1.78173,-18.81957 0.18556,-29.54729 C 325.6124,190.12585 322.049,172.2346 317.5946,152.67239 313.1402,133.11019 307.7951,111.87825 302.41272,97.215955 297.03033,82.55366 291.61099,74.461767 284.00139,64.365136 276.39179,54.268504 266.59243,42.167782 257.16398,33.296159 247.73553,24.424537 238.67854,18.782478 227.83952,14.216742 217.00049,9.6510066 204.3801,6.1618395 188.67836,5.2338687 172.97661,4.3058979 154.19451,5.939124 137.91746,8.3333649 121.64041,10.727606 107.86934,13.882702 95.248701,17.520416 Z"
       id="path3"
       inkscape:path-effect="#path-effect4"
       inkscape:original-d="M 94.097996,17.037862 C 82.628062,21.158129 71.158129,25.278396 59.688196,29.398664 51.85582,36.711356 44.023756,44.023756 36.191537,51.336303 29.769731,62.361022 23.348181,73.385301 16.926503,84.4098 c -3.266583,15.66475 -6.533036,31.32888 -9.7995542,46.99332 -1.0393675,19.00557 -2.0786934,38.01039 -3.1180401,57.01559 1.3363296,28.65684 2.6726058,57.31254 4.0089087,85.96882 0.9651269,19.30254 1.9302153,38.6043 2.8953226,57.90646 2.598419,11.95272 5.196734,23.90497 7.795101,35.85746 5.048356,17.14956 10.09651,34.29844 15.144766,51.44766 3.192343,8.83462 6.384558,17.66889 9.576837,26.50334 -2.004494,2.7469 -4.008909,5.49369 -6.013363,8.24053 -1.781773,2.22722 -3.563474,4.45435 -5.345212,6.68152 1.410571,2.59842 2.821084,5.19673 4.231626,7.7951 4.825635,1.78177 9.651077,3.56347 14.476615,5.34521 2.227216,0.44544 4.454343,0.89087 6.681514,1.3363 -1.039367,2.89538 -2.078693,5.79065 -3.11804,8.68597 0.07424,3.26659 0.148479,6.53304 0.222718,9.79956 2.598418,2.30145 5.196733,4.60282 7.7951,6.90423 6.087724,0.89089 12.175204,1.78174 18.262806,2.6726 8.38918,0.22273 16.778025,0.44544 25.167042,0.66816 8.90886,-0.74241 17.81737,-1.48479 26.72605,-2.22718 3.86051,-0.81664 7.72086,-1.63325 11.5813,-2.44988 1.63329,-3.93475 3.26651,-7.86934 4.89977,-11.80401 -0.22272,-8.83463 -0.44543,-17.6689 -0.66815,-26.50334 -0.7424,-13.80874 -1.48478,-27.61693 -2.22717,-41.42539 3.26658,-5.93925 6.53304,-11.87825 9.79955,-17.81738 4.23171,-1.48481 8.46326,-2.96956 12.69488,-4.45434 5.34532,0.0742 10.69043,0.14848 16.03564,0.22272 6.08772,3.71203 12.1752,7.4239 18.2628,11.13586 1.78178,3.04386 3.56348,6.0876 5.34521,9.1314 -0.29696,2.15297 -0.59391,4.30586 -0.89086,6.4588 -4.60292,3.56354 -9.20565,7.12695 -13.80847,10.69042 -5.71652,3.86051 -11.43281,7.72086 -17.14922,11.58129 -2.89538,4.97412 -5.79064,9.94803 -8.68597,14.92205 -0.7424,5.79076 -1.48478,11.58129 -2.22717,17.37194 1.33633,4.00899 2.67261,8.01782 4.00891,12.02672 4.15747,2.44994 8.31477,4.89978 12.47216,7.34967 12.10121,1.03937 24.20193,2.07869 36.3029,3.11804 8.16646,-2.59842 16.33259,-5.19673 24.49888,-7.7951 7.8695,-4.60291 15.73868,-9.20564 23.60802,-13.80846 6.97861,-12.69513 13.95694,-25.38976 20.93541,-38.08464 5.04836,-10.31943 10.09651,-20.63845 15.14477,-30.95768 3.1181,-18.70861 6.23608,-37.41648 9.35412,-56.12472 2.96962,-18.41165 5.93912,-36.82257 8.90868,-55.23385 2.44994,-26.94932 4.89978,-53.89755 7.34967,-80.84633 0.3712,-3.56355 0.74239,-7.12695 1.11359,-10.69042 C 325.6124,190.12585 322.049,172.2346 318.48552,154.34298 313.1402,133.11019 307.7951,111.87825 302.44989,90.64588 297.03033,82.553661 291.61099,74.461767 286.19154,66.36971 276.39179,54.268503 266.59243,42.16778 256.79287,30.066815 247.73553,24.424535 238.67854,18.78248 229.62138,13.140312 217.00049,9.6510067 204.3801,6.1618411 191.75947,2.6726058 172.97661,4.3058976 154.19451,5.939124 135.41203,7.5723831 121.64041,10.727606 107.86934,13.882702 94.097996,17.037862 Z"
       transform="matrix(0.02149435,0,0,0.01884114,60.390718,63.679914)" />
    <path
       id="path2"
       style="display:inline;fill:#ffff00;stroke-width:0.020124;stroke-linecap:round"
       d="m 63.025161,67.066499 a 0.13778429,0.12077657 0 0 0 -0.137783,0.120775 0.13778429,0.12077657 0 0 0 0.137783,0.120775 0.13778429,0.12077657 0 0 0 0.137782,-0.120775 0.13778429,0.12077657 0 0 0 -0.137782,-0.120775 z m 1.559726,0.0145 a 0.13778429,0.12077657 0 0 0 -0.137783,0.120775 0.13778429,0.12077657 0 0 0 0.137783,0.120775 0.13778429,0.12077657 0 0 0 0.137781,-0.120775 0.13778429,0.12077657 0 0 0 -0.137781,-0.120775 z" />
    <path
       id="path1"
       style="display:inline;fill:#000000;stroke-width:0.026832"
       d="m 64.215788,63.679988 c -0.33622,-0.0019 -0.950633,0.04605 -1.208595,0.09884 -0.126737,0.02594 -0.328974,0.0637 -0.449408,0.0839 -0.120435,0.0202 -0.257904,0.05435 -0.305497,0.07592 -0.0476,0.02158 -0.112948,0.03923 -0.145255,0.03923 -0.0323,0 -0.05877,0.01132 -0.05877,0.02513 0,0.01382 -0.01972,0.02513 -0.04387,0.02513 -0.08151,0 -0.547873,0.227437 -0.660825,0.322286 -0.101678,0.08538 -0.200058,0.20748 -0.331525,0.411377 -0.02613,0.04053 -0.06587,0.09269 -0.08833,0.115918 -0.04131,0.04273 -0.136438,0.211659 -0.136438,0.242322 0,0.0092 -0.0298,0.07528 -0.06625,0.146938 -0.154232,0.30321 -0.256921,0.759071 -0.310702,1.379636 -0.02723,0.314138 -0.02636,0.566731 0.0042,1.230967 0.02112,0.459644 0.04093,0.948767 0.044,1.086935 0.01105,0.497412 0.04791,0.858781 0.114063,1.117884 0.06161,0.241302 0.124835,0.506487 0.182744,0.766231 0.01232,0.05527 0.06291,0.185246 0.112384,0.288872 0.04947,0.103628 0.117426,0.267557 0.151047,0.364275 0.03362,0.09672 0.07121,0.187143 0.0835,0.20096 0.0123,0.01382 0.03108,0.06468 0.04177,0.113047 0.01069,0.04835 0.03308,0.119004 0.04975,0.156948 0.02712,0.06176 0.01941,0.0795 -0.07346,0.169607 -0.09165,0.08892 -0.10366,0.116043 -0.103274,0.232497 2.44e-4,0.0725 0.0099,0.143643 0.02149,0.158126 0.04888,0.06112 0.201887,0.132124 0.321954,0.149367 0.173066,0.02485 0.174536,0.02631 0.127245,0.125522 -0.02269,0.04761 -0.04127,0.110742 -0.04127,0.140279 0,0.0392 0.05611,0.115459 0.102056,0.155843 l -9.27e-4,0.0051 0.136775,0.101052 8.9e-5,-3.9e-5 c 0.0032,0.0023 0.0042,0.0054 0.0081,0.0072 0.04771,0.0234 1.315496,0.01627 1.359643,-0.0076 0.01338,-0.0073 0.06059,-0.01337 0.104911,-0.01361 0.277228,-0.0016 0.434601,-0.06125 0.468762,-0.117205 0.03389,-0.0555 0.07061,-0.415191 0.02708,-0.564608 -0.02242,-0.07693 -0.03044,-0.256287 -0.02301,-0.514967 0.01051,-0.365683 0.0174,-0.408135 0.08741,-0.539033 0.04179,-0.07815 0.09284,-0.151576 0.113434,-0.163168 0.04297,-0.02419 0.449341,-0.05334 0.460154,-0.03301 0.01903,0.03579 0.201356,0.128015 0.348486,0.176268 0.119997,0.03936 0.159784,0.06387 0.147858,0.09111 -0.009,0.0205 -0.01629,0.06004 -0.01629,0.08784 0,0.02932 -0.02395,0.05601 -0.05701,0.06359 -0.02798,0.0064 -0.04462,0.01967 -0.04198,0.03117 l -0.06856,0.03003 c -0.004,-3.56e-4 -0.0074,-3.8e-5 -0.01159,-6.45e-4 -0.0089,-0.0012 -0.01508,0.0052 -0.01834,0.01377 l -0.100293,0.04394 c -0.0066,0.0023 -0.01221,0.0054 -0.01864,0.0082 l -0.03845,0.01685 -0.162216,0.09251 -0.0029,0.0031 c -0.0035,-0.0042 -0.0094,-5.92e-4 -0.02351,0.01902 -0.0031,0.0043 -0.0026,0.0075 -0.0046,0.01159 l -0.18717,0.203865 c -0.122619,0.117876 -0.153315,0.222124 -0.153315,0.484387 0,0.216437 0.008,0.257534 0.06167,0.317355 0.08024,0.08941 0.235711,0.145892 0.558559,0.20291 0.25273,0.04463 0.276458,0.04472 0.673462,0.0018 0.374843,-0.04051 0.535145,-0.07535 0.655115,-0.142302 0.02364,-0.0132 0.06881,-0.03414 0.100335,-0.04659 0.08613,-0.034 0.231256,-0.192082 0.301131,-0.305138 l 0.106478,-0.141008 c 0.01871,-0.01764 0.03988,-0.04219 0.06398,-0.07628 0.04691,-0.06635 0.09597,-0.131944 0.109026,-0.145761 0.06375,-0.06749 0.207023,-0.317942 0.259528,-0.453733 0.03239,-0.08376 0.09839,-0.219102 0.146723,-0.300759 0.07657,-0.129361 0.08794,-0.174432 0.0882,-0.350144 1.62e-4,-0.110915 0.01769,-0.25253 0.03891,-0.314706 0.02122,-0.06217 0.05487,-0.20631 0.07481,-0.320299 0.01994,-0.113989 0.04616,-0.207253 0.05827,-0.207253 0.01211,0 0.03029,-0.04239 0.04035,-0.09421 0.101616,-0.523507 0.209418,-1.397542 0.24559,-1.990905 0.01559,-0.255612 0.03599,-0.521674 0.04534,-0.591288 0.01082,-0.08057 4.95e-4,-0.182521 -0.02851,-0.280519 -0.02504,-0.08465 -0.05305,-0.242477 -0.06227,-0.350715 -0.0092,-0.108237 -0.02918,-0.232764 -0.04438,-0.276692 -0.01519,-0.04393 -0.03929,-0.178779 -0.05353,-0.299692 -0.01423,-0.120913 -0.05074,-0.277154 -0.08115,-0.347199 -0.03041,-0.07004 -0.07728,-0.20083 -0.104155,-0.290639 -0.02687,-0.08981 -0.07991,-0.237067 -0.117883,-0.327219 -0.03797,-0.09015 -0.06906,-0.177738 -0.06906,-0.194667 0,-0.01693 -0.01287,-0.0308 -0.02863,-0.0308 -0.01576,0 -0.02868,-0.01556 -0.02868,-0.03459 0,-0.01903 -0.01935,-0.0487 -0.04299,-0.06591 -0.02364,-0.0172 -0.04299,-0.05367 -0.04299,-0.08107 0,-0.02741 -0.02902,-0.08098 -0.06449,-0.119045 -0.03547,-0.03807 -0.08383,-0.09441 -0.107472,-0.125191 -0.09682,-0.126033 -0.443045,-0.499147 -0.568172,-0.6123 -0.17584,-0.15899 -0.309692,-0.236778 -0.652768,-0.37938 -0.297106,-0.123495 -0.34552,-0.131739 -1.071779,-0.182707 -0.03483,-0.0025 -0.0772,-0.0038 -0.12523,-0.004 z m -0.02553,0.154188 c 0.11978,0.0018 0.240536,0.01164 0.425647,0.03032 0.322388,0.03255 0.465935,0.0588 0.584881,0.106939 0.48769,0.197365 0.718534,0.344052 0.902763,0.57366 0.03153,0.03929 0.112012,0.128392 0.178881,0.198017 0.148641,0.154763 0.247875,0.283119 0.348696,0.451009 0.0422,0.07026 0.09169,0.150364 0.109949,0.177998 0.08235,0.12465 0.265236,0.614087 0.265236,0.709818 0,0.01853 0.02595,0.0808 0.05769,0.138364 0.03186,0.0578 0.06505,0.183799 0.07413,0.281404 0.009,0.09721 0.0333,0.233257 0.0539,0.302341 0.0206,0.06909 0.04558,0.227374 0.0555,0.351726 0.0099,0.124352 0.03565,0.271288 0.05718,0.326555 0.02993,0.07684 0.03345,0.159642 0.01499,0.351726 -0.01328,0.138168 -0.03735,0.475159 -0.05352,0.748899 -0.01618,0.273739 -0.03648,0.507775 -0.04513,0.520045 -0.01549,0.02197 -0.05742,0.316825 -0.09517,0.669597 -0.01967,0.18378 -0.06087,0.276785 -0.06398,0.144436 -9.26e-4,-0.0403 -2.43e-4,-0.189058 0.0015,-0.330603 0.0038,-0.29283 -0.04125,-0.621961 -0.106548,-0.778928 -0.03814,-0.09169 -0.056,-0.106753 -0.126489,-0.106753 -0.09744,0 -0.106969,0.05093 -0.03661,0.195477 0.05694,0.116964 0.0634,0.170589 0.08405,0.696312 0.0092,0.234886 0.03615,0.500898 0.05982,0.59114 0.04429,0.168854 0.02465,0.40144 -0.04803,0.568989 -0.01637,0.03772 -0.04762,0.20277 -0.06948,0.366777 -0.02185,0.164006 -0.05451,0.313798 -0.07258,0.332884 -0.01807,0.01909 -0.02452,0.04652 -0.01436,0.06094 0.01017,0.01442 0.0062,0.0262 -0.0088,0.0262 -0.02783,0 -0.170617,0.289529 -0.185808,0.376787 -0.0046,0.02643 -0.03147,0.07043 -0.05974,0.09781 -0.02237,0.02167 -0.03613,0.04659 -0.03652,0.06278 l -0.04551,0.06385 c -0.0043,0.0044 -0.0086,0.0084 -0.0094,0.01322 l -0.05962,0.08361 c -0.0136,0.0031 -0.02321,0.01448 -0.02351,0.0298 l -0.172458,0.212956 c -0.01084,0.01 -0.01937,0.02096 -0.02393,0.03235 l -0.178629,0.241512 c -0.0082,0.0048 -0.01615,0.0075 -0.02422,0.01417 -0.166833,0.136379 -0.519439,0.23154 -0.976524,0.263481 -0.164143,0.01147 -0.444245,-0.02689 -0.444245,-0.06083 0,-0.0088 0.05484,-0.03778 0.121829,-0.06432 0.0947,-0.03752 0.123806,-0.06364 0.130856,-0.117352 0.008,-0.06103 -4.14e-4,-0.0691 -0.07241,-0.0691 -0.04483,0 -0.106943,0.01483 -0.138034,0.03293 -0.03109,0.0181 -0.114584,0.04871 -0.185515,0.068 -0.07093,0.0193 -0.139585,0.05015 -0.152559,0.0686 -0.01821,0.02589 -0.03617,0.01953 -0.0788,-0.02797 -0.06696,-0.07462 -0.06975,-0.09462 -0.01033,-0.07462 0.03988,0.01342 0.08579,8.6e-4 0.241685,-0.0661 0.02364,-0.01015 0.04727,-0.05006 0.05248,-0.08869 l 0.0094,-0.07025 -0.138412,0.01659 c -0.07614,0.0091 -0.142771,0.02773 -0.148025,0.04136 -0.022,0.05704 -0.06209,0.01852 -0.06209,-0.05966 0,-0.0753 0.0073,-0.08321 0.06797,-0.07305 0.108353,0.01816 0.247311,-0.05792 0.247311,-0.135384 0,-0.06226 -0.0059,-0.06477 -0.118848,-0.05148 l -0.118807,0.01399 0.18329,-0.163203 c 0.100821,-0.08975 0.231694,-0.184987 0.290804,-0.211633 0.283212,-0.127665 0.336992,-0.148925 0.376655,-0.148925 0.02347,0 0.05004,-0.01043 0.05902,-0.02318 0.009,-0.01275 0.05504,-0.03064 0.102308,-0.03974 0.04727,-0.0091 0.10191,-0.02994 0.121451,-0.04633 0.01954,-0.01638 0.09355,-0.05176 0.164483,-0.0786 0.117455,-0.04445 0.220804,-0.104087 0.268511,-0.14819 l 0.08329,-0.05693 c 0.06147,-0.01652 0.161374,-0.08323 0.195422,-0.138991 0.01717,-0.02813 0.0231,-0.08908 0.01318,-0.135457 l -0.01806,-0.08431 -0.06339,0.05557 c -0.02374,0.02081 -0.0389,0.04019 -0.04757,0.05549 l -0.08354,0.05236 c -2.28e-4,1.43e-4 -3.97e-4,2.86e-4 -6.29e-4,4.29e-4 l -0.106045,0.06646 c -0.0048,-3.7e-5 -0.0097,0.0043 -0.01478,0.0093 l -0.213222,0.133691 c -0.05088,0.01831 -0.116827,0.04372 -0.196053,0.07702 -0.13148,0.05527 -0.247319,0.100461 -0.257386,0.100461 -0.01007,0 -0.0183,-0.03477 -0.0183,-0.07728 0,-0.0718 -0.09385,-0.17928 -0.165951,-0.208577 l -2.12e-4,-0.003 -0.01877,-0.0041 c -6.75e-4,-1.42e-4 -0.0013,-2.84e-4 -0.002,-4.27e-4 l -0.169394,-0.03713 c -0.01471,-0.0167 -0.05539,-0.04615 -0.112468,-0.07776 -0.115886,-0.06417 -0.146411,-0.06907 -0.429383,-0.06907 -0.292243,0 -0.308141,0.0028 -0.391138,0.06907 -0.05562,0.04441 -0.112055,0.13397 -0.158059,0.250749 -0.06412,0.162783 -0.07141,0.220226 -0.07003,0.552687 8.49e-4,0.204057 0.03108,0.460619 0.02956,0.571968 -0.0017,0.12554 -0.03064,0.24099 -0.02124,0.30661 0.0019,0.01321 0.0059,0.02037 0.0089,0.03073 l -0.07695,0.08931 c -0.06987,0.0082 -0.108867,0.02638 -0.135222,0.04461 -0.0279,0.0193 -0.03581,-0.01205 -0.03581,-0.141602 v -0.166368 h -0.08597 -0.08598 l -2.11e-4,0.182156 -2.11e-4,0.182119 -0.15701,0.0068 -0.157009,0.0067 -0.01839,-0.100904 c -0.01549,-0.08492 -0.02919,-0.100941 -0.0864,-0.100941 -0.06018,0 -0.06801,0.01152 -0.06801,0.100204 v 0.100168 l -0.18627,-0.0025 c -0.170723,-0.0023 -0.186194,-0.0069 -0.185263,-0.05623 5.4e-4,-0.02958 0.01945,-0.08204 0.04198,-0.116579 0.02253,-0.03454 0.04138,-0.08825 0.04194,-0.11934 7.72e-4,-0.0462 -0.01459,-0.05652 -0.08455,-0.05652 -0.07104,0 -0.09288,0.01525 -0.128336,0.08964 -0.0235,0.0493 -0.04147,0.09733 -0.03997,0.106754 0.0015,0.0094 0.0012,0.04822 -6.29e-4,0.08622 -0.0027,0.05496 -0.01659,0.06848 -0.06788,0.06617 -0.166463,-0.0075 -0.279427,-0.07502 -0.279427,-0.166957 0,-0.03202 0.02577,-0.102524 0.05731,-0.156691 0.05745,-0.09872 0.07764,-0.264816 0.03409,-0.28052 -0.0022,-8.06e-4 -0.01779,-0.03323 -0.02536,-0.04662 -4.31e-4,-0.0027 -5.39e-4,-0.0048 -0.001,-0.0075 -0.02129,-0.122157 -0.09823,-0.328996 -0.184589,-0.538844 -0.08636,-0.209839 -0.182142,-0.422654 -0.253106,-0.628005 -0.07097,-0.205359 -0.117101,-0.403229 -0.170111,-0.721749 -0.05301,-0.31852 -0.112861,-0.757686 -0.14706,-1.097938 -0.0342,-0.340252 -0.04278,-0.581574 -0.04962,-0.892599 -0.0069,-0.311025 -0.01195,-0.691722 -0.01024,-0.975765 1.96e-4,-0.03388 0.0011,-0.05342 0.0015,-0.08457 0.0013,-0.0037 0.0012,-0.0083 2.52e-4,-0.01295 0.0029,-0.222158 0.009,-0.387386 0.01197,-0.47206 0.0034,-0.09818 0.0017,-0.107188 -0.0025,-0.111685 -0.0022,-0.0024 -0.0054,-0.0032 -0.0093,-0.0028 -0.0061,-0.01007 -0.01586,-0.0186 -0.03397,-0.02852 -0.03034,-0.01661 -0.04888,-0.02088 -0.04118,-0.0095 0.0077,0.01138 -0.004,0.116783 -0.02611,0.234226 -0.123509,0.657826 -0.09226,2.205741 0.06335,3.140179 0.02848,0.171042 0.08081,0.422604 0.123929,0.606081 l 0.06943,0.199783 0.373254,1.013006 2.93e-4,0.008 c 0.01464,0.02505 0.03413,0.06222 0.06154,0.116984 0.05447,0.108807 0.10253,0.227506 0.106758,0.263777 0.0073,0.06259 3.74e-4,0.06625 -0.135641,0.07209 -0.108307,0.0047 -0.162511,-0.0066 -0.222081,-0.04607 -0.123981,-0.08212 -0.10903,-0.122817 0.108438,-0.294723 0.01365,-0.01079 0.02437,-0.03355 0.03224,-0.05895 l -0.36125,-1.026107 c -4.95e-4,1.9e-5 -7.64e-4,3.56e-4 -0.0012,3.56e-4 -0.0194,0 -0.0094,-0.01867 -0.0186,-0.03768 -0.0099,-0.02044 -0.0071,-0.0241 -0.0081,-0.03768 -2.91e-4,-0.0041 -0.0095,-0.02956 -0.01297,-0.04117 l -0.08006,-0.227382 -0.01155,-0.04441 c -0.05244,-0.155248 -0.103259,-0.32267 -0.107208,-0.411746 l -0.01863,-0.0716 -0.01071,-0.03569 c -2.68e-4,-1.49e-4 -7.19e-4,-9.2e-5 -9.26e-4,-2.55e-4 -0.0019,-0.0067 -0.0044,-0.01495 -0.0066,-0.02223 0,-4.98e-4 2.51e-4,-0.0012 2.51e-4,-0.0017 l -0.01759,-0.05851 c -1.06e-4,3.7e-5 -1.95e-4,5.6e-5 -2.92e-4,1.13e-4 -0.0047,-0.01602 -0.0081,-0.02719 -0.01281,-0.04324 4.4e-5,-1.5e-4 8e-6,-1.92e-4 4.4e-5,-3.34e-4 l -0.02314,-0.07702 1.31e-4,-5.91e-4 c -9e-5,-5.7e-5 -1.96e-4,-9.3e-5 -2.93e-4,-1.5e-4 -0.0032,-0.01075 -0.0078,-0.02614 -0.0104,-0.03496 -0.001,-0.0032 -0.0015,-0.0047 -0.0023,-0.0076 -9.26e-4,-0.01692 -0.0047,-0.0366 -0.01247,-0.05199 -0.01046,-0.02073 -0.03122,-0.331592 -0.04614,-0.690829 -0.01492,-0.359238 -0.04256,-1.010173 -0.06138,-1.4465 -0.03049,-0.706861 -0.0289,-0.83828 0.01436,-1.205833 0.05827,-0.49513 0.166746,-0.940683 0.274767,-1.128482 0.02781,-0.04836 0.07329,-0.149213 0.101048,-0.224144 0.02777,-0.07493 0.132544,-0.241595 0.232827,-0.370345 0.05438,-0.06983 0.06837,-0.09151 0.09677,-0.130122 0.07562,-0.06744 0.144457,-0.129643 0.144457,-0.129643 l 0.482615,-0.306243 0.01927,-0.01763 c 0.02276,-0.0099 0.04685,-0.02001 0.06973,-0.0276 0.05517,-0.01831 0.112565,-0.04275 0.127539,-0.05436 0.01498,-0.0116 0.05107,-0.02112 0.08023,-0.02112 0.02916,0 0.09392,-0.01853 0.143953,-0.04122 0.05002,-0.02267 0.233156,-0.06734 0.406961,-0.09924 0.173804,-0.0319 0.374068,-0.06893 0.445,-0.08232 0.07093,-0.01339 0.317161,-0.03787 0.547182,-0.05439 0.181209,-0.01301 0.299989,-0.01911 0.41977,-0.01726 z m 1.437686,0.708935 c -0.07731,0 -0.140595,0.0082 -0.140595,0.01807 0,0.0099 -0.02146,0.01085 -0.04769,0.002 -0.02893,-0.0097 -0.04056,-0.0059 -0.02956,0.0097 0.01,0.01415 -0.01453,0.03874 -0.05445,0.05468 -0.0573,0.02289 -0.06862,0.02233 -0.0539,-0.0026 0.01025,-0.01738 -0.0094,-0.0033 -0.04366,0.0312 -0.03426,0.03454 -0.05302,0.04586 -0.04168,0.02513 0.01132,-0.02073 -0.02122,0.0018 -0.07234,0.05023 -0.05111,0.04836 -0.07607,0.06531 -0.05545,0.03768 0.02062,-0.02763 -0.0263,0.0031 -0.104282,0.06826 -0.147598,0.12333 -0.191154,0.234998 -0.09164,0.234998 0.02758,0 0.05017,-0.01076 0.05017,-0.02392 0,-0.01315 0.008,-0.01687 0.01788,-0.0082 0.0098,0.0086 0.03886,-0.0041 0.06449,-0.02841 0.02563,-0.02425 0.04012,-0.03178 0.03224,-0.01678 -0.0079,0.01501 0.02225,-0.007 0.06692,-0.04905 0.04468,-0.04199 0.07273,-0.0594 0.06239,-0.03867 -0.01035,0.02073 0.01432,0.0038 0.05478,-0.03768 0.04046,-0.04145 0.07363,-0.06437 0.07372,-0.05093 8.9e-5,0.01344 0.02082,-0.0014 0.04609,-0.03308 0.02537,-0.03175 0.06389,-0.05151 0.08598,-0.04409 0.02201,0.0074 0.04001,0.005 0.04001,-0.0053 0,-0.0103 0.05166,-0.0181 0.114776,-0.01737 0.08759,0.0011 0.13338,0.01834 0.19345,0.07316 0.04329,0.0395 0.05933,0.06379 0.03569,0.05399 -0.02726,-0.0113 -0.0248,-0.0047 0.0067,0.01792 0.02734,0.01967 0.04133,0.04311 0.03106,0.05211 -0.01027,0.009 -0.0028,0.01638 0.01671,0.01638 0.02302,0 0.02862,0.01865 0.01604,0.0534 -0.01064,0.02936 -0.0083,0.04739 0.0052,0.04008 0.01351,-0.0073 0.02496,0.09215 0.02548,0.221053 5.85e-4,0.142351 -0.0098,0.228567 -0.02636,0.219581 -0.0155,-0.0084 -0.01937,0.0032 -0.009,0.02701 0.01007,0.02299 0.0062,0.04181 -0.0086,0.04181 -0.01478,0 -0.02009,0.01551 -0.0118,0.03444 0.0083,0.01895 -0.0058,0.04145 -0.03136,0.05005 -0.02555,0.0086 -0.03949,0.0255 -0.03098,0.03757 0.0085,0.01207 -0.01224,0.04323 -0.04609,0.06925 -0.03999,0.03074 -0.05327,0.03412 -0.03783,0.0096 0.01308,-0.02073 -0.0073,-0.0094 -0.04521,0.02513 -0.03795,0.03454 -0.05923,0.06657 -0.04731,0.0712 0.01192,0.0047 0.01437,0.01879 0.0055,0.03142 -0.0089,0.01264 0.01124,0.02296 0.04475,0.02296 0.06016,0 0.263047,-0.162768 0.234296,-0.187969 -0.0082,-0.0072 0.001,-0.01299 0.02032,-0.01299 0.01932,0 0.02712,-0.01132 0.01738,-0.02513 -0.0097,-0.01382 -0.0045,-0.02513 0.01176,-0.02513 0.0162,0 0.02123,-0.01881 0.01117,-0.04181 -0.01301,-0.02972 -0.0077,-0.03607 0.0183,-0.02197 0.02743,0.01486 0.03145,0.0057 0.01612,-0.03669 -0.01431,-0.03952 -0.0106,-0.0512 0.01239,-0.03875 0.02289,0.0124 0.02746,-0.0011 0.01507,-0.04434 -0.01078,-0.03768 -0.0039,-0.06974 0.01763,-0.08137 0.02277,-0.01234 0.02809,-0.0088 0.01494,0.0098 -0.01172,0.01662 -0.0034,0.02899 0.01948,0.02899 0.02195,0 0.03989,0.01695 0.03989,0.03768 0,0.02073 -0.01395,0.03788 -0.03102,0.03809 -0.02164,2.7e-4 -0.02188,0.006 -7.19e-4,0.01884 0.01668,0.01015 0.05376,0.04671 0.08237,0.08125 0.03084,0.03723 0.04493,0.04451 0.03464,0.01788 -0.01034,-0.02673 -0.0013,-0.05031 0.02229,-0.05825 0.07809,-0.02627 0.05853,-0.09879 -0.05349,-0.198274 -0.06222,-0.05527 -0.09444,-0.0779 -0.07162,-0.05026 0.03886,0.04706 0.03811,0.04795 -0.01146,0.01376 -0.04506,-0.03106 -0.0514,-0.06527 -0.04287,-0.230031 0.0055,-0.106443 -0.0011,-0.187515 -0.01465,-0.180169 -0.01356,0.0074 -0.01545,-0.01207 -0.0042,-0.04317 0.01534,-0.04236 0.0113,-0.05158 -0.01612,-0.03672 -0.02625,0.01422 -0.03125,0.0076 -0.01772,-0.02325 0.01038,-0.02371 0.0087,-0.0376 -0.0037,-0.03087 -0.01243,0.0068 -0.03903,-0.01082 -0.05911,-0.03901 -0.02997,-0.04207 -0.02972,-0.04819 0.0015,-0.03419 0.02087,0.0094 0.01433,1.35e-4 -0.01452,-0.0205 -0.02885,-0.02063 -0.07172,-0.0582 -0.09526,-0.0835 -0.02354,-0.0253 -0.03472,-0.03198 -0.02486,-0.01487 0.01179,0.02045 0.0028,0.02598 -0.02637,0.01619 -0.02437,-0.0082 -0.0392,-0.02218 -0.03292,-0.0311 0.0063,-0.0089 -0.05178,-0.01623 -0.129092,-0.01623 z m -3.641697,0.0018 c -0.06366,-5.41e-4 -0.135295,0.0035 -0.167253,0.01266 -0.0079,0.0023 -0.02496,0.0025 -0.03795,5.13e-4 -0.01299,-0.002 -0.01718,0.0055 -0.0093,0.01667 0.0079,0.01115 -0.0297,0.04668 -0.08346,0.07897 -0.05375,0.03228 -0.0907,0.06868 -0.08212,0.08085 0.0086,0.01217 0.0012,0.02211 -0.01642,0.02211 -0.01762,0 -0.0241,0.01132 -0.01436,0.02513 0.0097,0.01381 0.0045,0.0251 -0.01171,0.0251 -0.0162,0 -0.02205,0.01695 -0.01298,0.03768 0.0091,0.02073 0.002,0.03768 -0.01579,0.03768 -0.02026,0 -0.02587,0.02572 -0.01507,0.06911 0.01293,0.05193 0.0099,0.05983 -0.01238,0.03186 -0.02174,-0.02733 -0.03187,0.01265 -0.03816,0.150729 -0.0055,0.121244 -0.0199,0.186113 -0.04055,0.182781 -0.01762,-0.0028 -0.06179,0.0226 -0.09815,0.05652 -0.03637,0.03392 -0.0542,0.06188 -0.03963,0.06208 0.01457,2.13e-4 0.0073,0.01104 -0.01625,0.02406 -0.0364,0.02017 -0.03683,0.02848 -0.0029,0.05612 0.03276,0.02671 0.03569,0.02622 0.0168,-0.0028 -0.01539,-0.02365 -0.01201,-0.02935 0.01016,-0.01733 0.01819,0.0099 0.03308,0.03487 0.03308,0.0556 0,0.02073 -0.01323,0.03049 -0.02939,0.02174 -0.01615,-0.0088 -0.02583,-0.0049 -0.02149,0.0086 0.0043,0.01346 2.11e-4,0.02279 -0.0092,0.02072 -0.03833,-0.0084 -0.107383,0.06523 -0.09265,0.09888 0.01972,0.04504 -0.04379,0.116067 -0.08422,0.09417 -0.01648,-0.0089 -0.02137,-0.0041 -0.01091,0.01067 0.01041,0.01477 0.0041,0.03121 -0.01402,0.03651 -0.02482,0.0073 -0.02482,0.02292 0,0.06359 0.02717,0.04451 0.02413,0.05851 -0.01738,0.07971 -0.02769,0.01414 -0.03742,0.0262 -0.02166,0.02683 0.01576,6.35e-4 0.0093,0.01316 -0.01436,0.02782 -0.03235,0.02005 -0.0341,0.02978 -0.0071,0.03938 0.0197,0.007 0.03581,0.02944 0.03581,0.04983 0,0.02039 -0.01323,0.02991 -0.02939,0.02116 -0.01615,-0.0088 -0.02583,-0.0046 -0.02149,0.0093 0.0043,0.01386 -0.01788,0.04384 -0.04941,0.06657 -0.03153,0.02273 -0.038,0.03398 -0.01436,0.02503 0.03321,-0.01258 0.03247,-0.0087 -0.0033,0.0173 -0.04643,0.03366 -0.02192,0.08108 0.04631,0.08953 0.04038,0.005 0.05421,0.08158 0.01474,0.08158 -0.01785,0 -0.02448,0.01128 -0.01474,0.0251 0.0097,0.01381 0.0033,0.02513 -0.01432,0.02513 -0.01762,0 -0.02405,0.01132 -0.01432,0.02513 0.0097,0.01381 0.004,0.0251 -0.01264,0.0251 -0.0474,0 -0.03569,0.05374 0.01978,0.09064 0.03332,0.02217 0.03755,0.03365 0.01264,0.03419 -0.02063,4.41e-4 -0.02951,0.01209 -0.01978,0.0259 0.0097,0.01381 0.0045,0.02513 -0.01176,0.02513 -0.0162,0 -0.02123,0.01882 -0.01117,0.04181 0.0123,0.02811 0.0073,0.03584 -0.0152,0.02362 -0.03787,-0.02052 -0.0411,-0.01148 -0.0162,0.04537 0.01171,0.02675 0.03852,0.03492 0.08283,0.02517 0.06776,-0.01491 0.139872,0.04094 0.0767,0.05939 -0.01865,0.0054 -0.02662,0.02023 -0.01772,0.03286 0.0089,0.01264 0.0018,0.023 -0.01587,0.023 -0.01762,0 -0.02406,0.01128 -0.01432,0.0251 0.0097,0.01381 0.0068,0.02513 -0.0065,0.02513 -0.01332,0 -0.02418,0.02133 -0.02418,0.0474 0,0.02813 0.01488,0.04238 0.03661,0.03507 0.02013,-0.0068 0.04454,0.0058 0.05424,0.02797 0.0097,0.02216 0.02874,0.0403 0.04232,0.0403 0.01359,0 0.01645,-0.01881 0.0064,-0.04181 -0.01302,-0.02972 -0.0077,-0.03607 0.0183,-0.02197 0.02743,0.01486 0.03146,0.0056 0.01612,-0.03672 -0.01478,-0.04082 -0.01088,-0.05132 0.01403,-0.03783 0.02327,0.01261 0.03072,0.0034 0.02288,-0.02827 -0.0064,-0.02582 -0.02375,-0.04506 -0.03858,-0.04276 -0.01482,0.0023 -0.02695,-0.02313 -0.02695,-0.05652 0,-0.03339 0.01055,-0.06072 0.02347,-0.06072 0.01291,0 0.01939,-0.02543 0.01436,-0.05652 -0.006,-0.03693 -0.02892,-0.05654 -0.06612,-0.05656 -0.03139,-1.9e-5 -0.06127,-0.01973 -0.06659,-0.04394 -0.0053,-0.02416 0.0049,-0.04394 0.0228,-0.04394 0.01785,0 0.02516,-0.01033 0.01624,-0.02296 -0.0089,-0.01264 1.3e-5,-0.02785 0.01982,-0.03379 0.0275,-0.0082 0.02872,-0.02815 0.0052,-0.0843 -0.03275,-0.07806 -0.02347,-0.144388 0.01713,-0.122394 0.02401,0.01301 -0.0089,-0.114402 -0.04147,-0.160628 -0.0092,-0.01307 0.01879,-0.04815 0.06222,-0.07801 0.04343,-0.02986 0.05962,-0.04697 0.03598,-0.03801 -0.02812,0.01065 -0.02567,0.0038 0.0071,-0.01976 0.05806,-0.04172 0.06547,-0.07096 0.01566,-0.06189 -0.0499,0.0091 -0.04628,-0.06324 0.0051,-0.102338 0.03785,-0.02879 0.03792,-0.0312 7.19e-4,-0.0177 -0.02364,0.0086 -0.01397,-0.0032 0.02149,-0.02631 0.06192,-0.04024 0.09474,-0.130486 0.03586,-0.09858 -0.05955,0.03227 -0.02558,-0.02002 0.04433,-0.06823 0.04014,-0.02768 0.06753,-0.06321 0.06087,-0.07897 -0.0066,-0.01576 0.02176,-0.06147 0.06314,-0.101601 0.04138,-0.04014 0.05912,-0.06491 0.03942,-0.05505 -0.04624,0.02314 -0.04736,-0.04025 -0.0015,-0.08051 0.01891,-0.01658 0.04718,-0.03013 0.0628,-0.03013 0.01562,0 0.0034,0.01652 -0.02725,0.03673 -0.05378,0.03551 -0.05342,0.03638 0.01037,0.02631 0.05455,-0.0086 0.06288,-0.0019 0.04819,0.03864 -0.01074,0.02965 -0.0045,0.04905 0.01591,0.04905 0.01864,0 0.02604,0.01741 0.01658,0.03901 -0.01115,0.02548 -0.0056,0.03272 0.01616,0.02097 0.02217,-0.01201 0.02708,-0.0041 0.01486,0.02381 -0.01008,0.02302 -0.0044,0.04181 0.01255,0.04181 0.01696,0 0.02316,0.01757 0.01377,0.03901 -0.0098,0.02236 -0.005,0.03243 0.01125,0.02362 0.01559,-0.0084 0.02834,-0.0033 0.02834,0.01126 0,0.05402 0.0049,0.06518 0.04769,0.106569 0.02408,0.02332 0.06384,0.03547 0.08866,0.02712 0.02858,-0.0096 0.03784,-0.005 0.02536,0.01273 -0.01216,0.01723 0.0025,0.0264 0.03829,0.02403 0.06432,-0.0042 0.08257,-0.102426 0.02485,-0.133692 -0.02222,-0.01204 -0.02548,-0.0063 -0.0099,0.01737 0.01276,0.0194 -0.01748,0.0021 -0.06721,-0.03849 -0.09589,-0.07826 -0.113284,-0.102628 -0.05461,-0.07658 0.01971,0.0088 0.01538,9.65e-4 -0.0097,-0.01737 -0.02502,-0.0183 -0.03948,-0.04896 -0.03212,-0.06815 0.0084,-0.0218 7.71e-4,-0.02809 -0.02011,-0.01674 -0.02396,0.01298 -0.02846,-0.0022 -0.01574,-0.05303 0.01004,-0.04018 0.0074,-0.05853 -0.006,-0.04214 -0.01331,0.01624 -0.02385,-0.0741 -0.02385,-0.204823 0,-0.13359 0.01117,-0.227826 0.02603,-0.219801 0.0143,0.0077 0.01871,-0.01032 0.0098,-0.04011 -0.0089,-0.02979 -0.0037,-0.05417 0.01155,-0.05417 0.01521,0 0.01969,-0.01132 0.01,-0.02513 -0.0097,-0.01381 -0.0019,-0.02513 0.01742,-0.02513 0.01932,0 0.02639,-0.0076 0.01574,-0.01696 -0.03273,-0.02869 0.09802,-0.131419 0.146515,-0.115108 0.02516,0.0084 0.03714,0.0044 0.02746,-0.0093 -0.0098,-0.01394 0.02497,-0.02436 0.08127,-0.02436 0.05415,0 0.09849,0.0097 0.09849,0.02156 0,0.01187 0.01287,0.01461 0.02863,0.0061 0.01576,-0.0085 0.02868,-0.0036 0.02868,0.01107 0,0.01463 0.01201,0.02376 0.02665,0.02032 0.01465,-0.0034 0.04784,0.01634 0.07376,0.04397 0.02593,0.02763 0.03859,0.03328 0.02817,0.01255 -0.01042,-0.02073 0.0073,-0.0094 0.03925,0.02513 0.03199,0.03454 0.07253,0.06278 0.09009,0.06278 0.01756,0 0.0581,0.02827 0.09009,0.06281 0.03199,0.03454 0.04927,0.04784 0.03837,0.02955 -0.01627,-0.02731 -0.0094,-0.02753 0.03863,-0.0012 0.03215,0.0176 0.05285,0.03999 0.04597,0.04975 -0.0069,0.0098 0.0121,0.01213 0.04219,0.0053 0.0608,-0.01394 0.07945,-0.04503 0.05915,-0.09034 -0.0021,0.01603 -0.02461,0.0011 -0.07351,-0.04946 l -0.05461,-0.05652 0.06449,0.04788 c 0.0342,0.02538 0.0602,0.0485 0.06217,0.0545 -0.01591,-0.03264 -0.05092,-0.07223 -0.107094,-0.118898 -0.07222,-0.06 -0.114399,-0.08647 -0.09374,-0.05884 0.02066,0.02763 -0.0042,0.01068 -0.05538,-0.03768 -0.05111,-0.04836 -0.08379,-0.07096 -0.07263,-0.05023 0.01116,0.02073 -0.0058,0.01175 -0.03765,-0.01995 -0.03187,-0.0317 -0.06511,-0.05713 -0.07384,-0.05652 -0.05922,0.0041 -0.0744,-0.002 -0.05907,-0.02374 0.01004,-0.01424 -0.0015,-0.01844 -0.02699,-0.0099 -0.02452,0.0082 -0.04446,0.0018 -0.04446,-0.01435 0,-0.01611 -0.01291,-0.0223 -0.02868,-0.01376 -0.01576,0.0085 -0.02863,0.0048 -0.02863,-0.0082 0,-0.0094 -0.05569,-0.01455 -0.119352,-0.01508 z m 0.747516,0.427201 c 5.85e-4,0.0012 9.27e-4,0.0024 0.0015,0.0036 1.06e-4,-7.9e-4 8.49e-4,-6.4e-4 8.49e-4,-0.0016 0,-1.72e-4 -0.0022,-0.0018 -0.0023,-0.002 z m 1.127992,-0.13634 c -0.02601,-5.7e-4 -0.04603,0.005 -0.0673,0.01667 -0.06915,0.03786 -0.148967,0.03818 -0.191644,7.73e-4 -0.02513,-0.02203 -0.04359,-0.0215 -0.07603,0.0021 -0.02356,0.01714 -0.06928,0.02375 -0.101637,0.01476 -0.03967,-0.01103 -0.06448,-0.0035 -0.07611,0.02307 -0.0095,0.02168 -0.03878,0.03941 -0.06511,0.03941 -0.02633,0 -0.07738,0.01809 -0.113433,0.04022 -0.03605,0.02213 -0.07319,0.03356 -0.08254,0.02535 -0.02439,-0.02138 -0.09395,0.03464 -0.09395,0.07566 0,0.08155 0.264861,0.01855 0.364522,-0.0867 0.02869,-0.0303 0.04285,-0.03111 0.07935,-0.0046 0.03664,0.02666 0.05351,0.02511 0.0963,-0.0088 0.06362,-0.05047 0.10174,-0.05198 0.145549,-0.0057 0.04289,0.0453 0.334386,0.03755 0.423253,-0.01126 0.05449,-0.02992 0.06987,-0.02896 0.115281,0.0071 0.036,0.02855 0.06567,0.03422 0.09475,0.0181 0.06004,-0.03329 0.08531,-0.02974 0.08531,0.01193 0,0.0241 0.04539,0.04152 0.136145,0.05233 0.07487,0.0089 0.158686,0.02169 0.186271,0.02837 0.05178,0.01254 0.06672,-0.0309 0.02821,-0.08199 -0.02043,-0.02711 -0.168366,-0.06076 -0.273339,-0.06219 -0.02843,-3.84e-4 -0.05898,-0.01735 -0.06788,-0.03768 -0.0099,-0.02261 -0.0367,-0.03126 -0.06902,-0.02226 -0.02906,0.0081 -0.07997,0.0019 -0.113097,-0.01358 -0.04539,-0.02129 -0.07059,-0.02072 -0.102308,0.0024 -0.03319,0.02415 -0.06665,0.02351 -0.158227,-0.003 -0.0453,-0.0131 -0.0773,-0.01985 -0.103315,-0.02042 z m 2.242843,0.228191 c -0.0045,-0.0031 -0.0076,0.02292 -0.0076,0.06955 0,0.06217 0.0056,0.08761 0.01243,0.05652 0.0068,-0.03109 0.0068,-0.08196 0,-0.113046 -0.0017,-0.0078 -0.0033,-0.01201 -0.0049,-0.01303 z m -3.897027,0.0072 c -0.0049,0.0013 -0.0082,0.004 -0.0098,0.0082 -0.0061,0.01594 -0.03251,0.02934 -0.05877,0.02977 -0.06184,0.0011 -0.135901,0.09163 -0.190847,0.23349 -0.04912,0.126805 -0.02746,0.213098 0.07834,0.312093 0.06899,0.06455 0.107724,0.07229 0.107724,0.02153 0,-0.01924 0.01934,-0.04146 0.04299,-0.04942 0.02364,-0.008 0.04299,-0.03179 0.04299,-0.05296 0,-0.02116 0.01291,-0.03845 0.02868,-0.03845 0.01576,0 0.02868,0.01128 0.02868,0.0251 0,0.01381 0.01906,0.02513 0.04236,0.02513 0.02388,0 0.0791,-0.06852 0.126574,-0.157022 l 0.08421,-0.156985 -0.07641,-0.0637 c -0.105316,-0.08777 -0.21292,-0.146107 -0.246731,-0.136819 z m 3.162315,2.21e-4 c -0.04164,0.0035 -0.126045,0.04703 -0.21994,0.116284 -0.09708,0.07161 -0.09693,0.07814 0.0073,0.291265 0.03452,0.07059 0.07018,0.106755 0.105205,0.106755 0.02913,0 0.05294,-0.01132 0.05294,-0.02513 0,-0.01381 0.01291,-0.0251 0.02868,-0.0251 0.01576,0 0.02868,0.0173 0.02868,0.03845 0,0.02116 0.01934,0.045 0.04299,0.05295 0.02364,0.008 0.04299,0.03017 0.04299,0.04942 0,0.05631 0.04677,0.04067 0.126405,-0.04228 0.05024,-0.05234 0.07418,-0.106966 0.07418,-0.169202 0,-0.118855 -0.135229,-0.356436 -0.202895,-0.356436 -0.02764,0 -0.0548,-0.01196 -0.06037,-0.02661 -0.0032,-0.0082 -0.01227,-0.01154 -0.02615,-0.01038 z m -3.736868,0.107821 c 0.0016,0.0015 0.0034,0.0052 0.0052,0.01129 h 4.3e-5 c 0.0073,0.02444 0.0068,0.05836 -0.0011,0.07536 -0.0079,0.01701 -0.01381,-0.003 -0.01322,-0.04446 4.39e-4,-0.03109 0.0042,-0.04666 0.0091,-0.04221 z m 4.328256,0.0095 c 0.0015,0.0017 0.0032,0.0063 0.0049,0.01413 0.0069,0.03125 0.0066,0.07648 -5.85e-4,0.100499 -0.0072,0.02402 -0.01279,-0.0016 -0.01247,-0.05682 2.43e-4,-0.04145 0.0036,-0.06287 0.0081,-0.05781 z m 0.316077,0.38363 c -0.0331,0.0088 -0.03284,0.116227 0.0093,0.145063 0.04186,0.02863 0.04215,0.02689 0.0032,-0.01869 -0.04011,-0.04688 -0.03953,-0.04786 0.0084,-0.01487 0.03564,0.02454 0.04222,0.04336 0.02149,0.06153 -0.01643,0.0144 -0.02966,0.03808 -0.02943,0.05258 2.44e-4,0.01451 0.01293,0.0094 0.02821,-0.01134 0.02374,-0.03221 0.02784,-0.03128 0.02821,0.0063 2.44e-4,0.02418 -7.2e-4,0.05142 -0.0022,0.06053 -0.0014,0.0091 0.01823,0.02677 0.04362,0.03923 0.02539,0.01245 0.03866,0.03325 0.02952,0.04622 -0.0091,0.01297 -0.0015,0.02359 0.01692,0.02359 0.01844,0 0.0032,0.02153 -0.03388,0.04784 l -0.06742,0.04783 0.107219,0.08865 c 0.108102,0.08937 0.141216,0.152097 0.06713,0.127177 -0.06635,-0.02232 -0.08385,0.03967 -0.0272,0.09634 0.03677,0.03678 0.03984,0.04724 0.01,0.03422 -0.02364,-0.01031 -0.01721,-4.48e-4 0.01432,0.02189 0.03153,0.02234 0.05627,0.04296 0.05499,0.04582 -0.0012,0.0029 -0.01784,0.03066 -0.03681,0.06175 -0.01898,0.03109 -0.02304,0.05652 -0.009,0.05652 0.01406,0 0.02419,0.03209 0.0225,0.07132 -0.0022,0.05185 -0.01537,0.06851 -0.04824,0.06101 -0.03445,-0.0078 -0.04422,0.0079 -0.04111,0.06638 0.0022,0.04219 0.01288,0.08445 0.02367,0.09391 0.03483,0.03053 0.02083,0.083 -0.0186,0.06974 -0.0493,-0.01658 -0.04743,0.0894 0.0024,0.135568 0.0591,0.05477 0.04361,0.109082 -0.02863,0.100278 -0.0398,-0.0048 -0.06177,0.0042 -0.05735,0.02355 0.0039,0.01727 -0.0053,0.03139 -0.02057,0.03139 -0.01527,0 -0.02036,0.01695 -0.01129,0.03768 0.0091,0.02073 0.0015,0.03768 -0.01692,0.03768 -0.01838,0 -0.02544,0.01132 -0.0157,0.02513 0.0097,0.01382 0.0073,0.02515 -0.0055,0.02517 -0.03813,7.8e-5 -0.03901,0.159395 -10e-4,0.180978 0.02679,0.01522 0.02494,0.02581 -0.0078,0.04467 -0.02364,0.0136 -0.0559,0.02473 -0.07167,0.02473 -0.01576,0 -0.0093,-0.01097 0.01436,-0.02436 0.03516,-0.01992 0.03186,-0.02441 -0.01801,-0.02473 -0.03353,-2.14e-4 -0.07866,0.01939 -0.100293,0.04357 -0.03565,0.03985 -0.03463,0.04074 0.01083,0.0095 0.02759,-0.01896 0.05013,-0.02783 0.05013,-0.01973 0,0.0081 -0.04189,0.04054 -0.09311,0.07212 -0.05123,0.03158 -0.09735,0.0744 -0.102476,0.09513 -0.0051,0.02073 -0.02053,0.04124 -0.03422,0.0456 -0.01369,0.0044 -0.01697,0.026 -0.0073,0.0481 0.0116,0.02651 0.0063,0.03406 -0.01562,0.02219 -0.0217,-0.01175 -0.02727,-0.0045 -0.01612,0.02097 0.0096,0.02204 0.002,0.03901 -0.01772,0.03901 -0.01915,0 -0.02738,0.01694 -0.0183,0.03768 0.0091,0.02073 0.0032,0.03768 -0.01297,0.03768 -0.0162,0 -0.02155,0.01118 -0.01193,0.02484 0.01,0.01417 -0.0013,0.01848 -0.02641,0.01005 -0.02743,-0.0092 -0.07113,0.01356 -0.116372,0.06068 -0.05292,0.05513 -0.08903,0.07165 -0.134004,0.06135 -0.04614,-0.01057 -0.05566,-0.0058 -0.03803,0.01925 0.01694,0.02403 0.0106,0.02901 -0.02271,0.01781 -0.03057,-0.01028 -0.05229,0.0011 -0.06411,0.03374 -0.0098,0.02713 -0.02967,0.04293 -0.04412,0.03511 -0.01448,-0.0078 -0.01779,0.0051 -0.0074,0.02889 0.01391,0.03177 0.0088,0.03763 -0.01952,0.0223 -0.0276,-0.01494 -0.03355,-0.0097 -0.02116,0.01862 0.01311,0.02994 7.19e-4,0.03779 -0.05163,0.03275 -0.03876,-0.0037 -0.09,0.0138 -0.117126,0.04008 -0.02652,0.02569 -0.03824,0.04674 -0.02598,0.04674 0.01225,0 0.0059,0.01723 -0.01398,0.0383 -0.03238,0.03421 -0.042,0.03378 -0.0895,-0.0039 -0.03155,-0.02503 -0.05319,-0.03037 -0.05319,-0.01317 0,0.01596 0.01547,0.029 0.03438,0.029 0.06541,0 -0.02835,0.05797 -0.105414,0.06517 -0.0499,0.0047 -0.06699,-0.0026 -0.05353,-0.02289 0.01088,-0.01636 -0.0074,-0.0088 -0.04068,0.01671 -0.03324,0.02554 -0.07268,0.0398 -0.08766,0.03169 -0.03281,-0.01777 -0.09848,0.04516 -0.07166,0.06867 0.01037,0.0091 0.0028,0.01652 -0.01696,0.01652 -0.0197,0 -0.0304,0.01412 -0.02376,0.03139 0.0066,0.01727 -0.006,0.04307 -0.02808,0.05733 -0.03105,0.02007 -0.02022,0.02729 0.04782,0.03183 0.05832,0.0039 0.08546,-0.0048 0.0806,-0.02594 -0.0042,-0.01802 0.02618,-0.03521 0.06994,-0.03963 0.0468,-0.0047 0.07193,-0.01993 0.06377,-0.03857 -0.0079,-0.01802 0.01054,-0.03077 0.04454,-0.03077 0.03191,0 0.05802,0.0089 0.05802,0.01973 0,0.01086 0.01291,0.01973 0.02867,0.01973 0.01576,0 0.02868,-0.01761 0.02868,-0.03916 0,-0.02351 0.01338,-0.03192 0.0335,-0.02101 0.023,0.01246 0.0274,0.0041 0.01394,-0.02664 -0.0157,-0.03587 -0.0081,-0.04219 0.03808,-0.03161 0.03174,0.0073 0.06616,0.0012 0.07649,-0.01339 0.01167,-0.01655 0.0036,-0.01973 -0.02145,-0.0083 -0.02214,0.01007 -0.01448,-1.5e-4 0.01704,-0.0227 0.03152,-0.02256 0.08596,-0.03634 0.120948,-0.03062 0.03499,0.0057 0.05796,0.0024 0.05105,-0.0075 -0.0069,-0.0098 0.01956,-0.03065 0.05881,-0.04633 0.05897,-0.02355 0.06804,-0.04013 0.05223,-0.09535 -0.01475,-0.05152 -0.01047,-0.06215 0.0186,-0.0464 0.02696,0.0146 0.03269,0.009 0.02016,-0.01965 -0.01301,-0.0297 -0.0031,-0.03763 0.03825,-0.03065 0.03068,0.0052 0.06715,0.01557 0.08106,0.02311 0.01392,0.0075 0.04287,-0.0053 0.06436,-0.02852 0.03359,-0.0363 0.03306,-0.03927 -0.0039,-0.02116 -0.03481,0.01706 -0.03624,0.01467 -0.0075,-0.01251 0.03964,-0.03745 0.122123,-0.055 0.122123,-0.02598 0,0.01029 0.01756,0.01869 0.03904,0.01869 0.02376,0 0.03367,-0.01802 0.02531,-0.04604 -0.0076,-0.02533 -5.85e-4,-0.04607 0.01558,-0.04607 0.01613,0 0.02288,-0.02165 0.01498,-0.0481 -0.0096,-0.03204 0.0065,-0.05786 0.04811,-0.07739 0.03436,-0.01612 0.05512,-0.03577 0.04614,-0.04364 -0.009,-0.0079 0.006,-0.03039 0.03338,-0.05005 0.02734,-0.01966 0.03158,-0.02751 0.0094,-0.01744 -0.02738,0.01245 -0.03333,0.0084 -0.0186,-0.01243 0.01191,-0.01689 0.04114,-0.02416 0.06494,-0.01615 0.03117,0.01049 0.03825,0.0031 0.02527,-0.02661 -0.01069,-0.02442 0.0025,-0.05593 0.03262,-0.07749 0.02786,-0.02 0.03255,-0.0281 0.01041,-0.01803 -0.02647,0.01203 -0.03326,0.0083 -0.01982,-0.01071 0.01125,-0.01595 0.04627,-0.029 0.07779,-0.029 0.03153,0 0.04943,0.01118 0.0398,0.02484 -0.0098,0.01397 0.001,0.01857 0.02481,0.01056 0.04428,-0.01489 0.08163,-0.153533 0.08728,-0.324053 0.0024,-0.07372 0.01647,-0.102453 0.05306,-0.108631 0.02736,-0.0047 0.05701,0.0082 0.06587,0.02837 0.01989,0.04543 0.126994,0.02569 0.126994,-0.0234 0,-0.01911 -0.01311,-0.03478 -0.02918,-0.03478 -0.01727,0 -0.02144,-0.02716 -0.01016,-0.06653 0.01115,-0.03894 0.008,-0.06057 -0.0076,-0.05211 -0.01468,0.008 -0.0267,-0.008 -0.0267,-0.03543 0,-0.03556 0.01473,-0.04655 0.05118,-0.0382 0.05403,0.01239 0.06223,-0.0044 0.03383,-0.06929 -0.0095,-0.02178 -0.02872,-0.03342 -0.04266,-0.02587 -0.01393,0.0075 -0.01765,-0.0038 -0.0083,-0.02525 0.0094,-0.02145 0.0056,-0.03901 -0.0085,-0.03901 -0.01407,0 -0.02557,-0.0226 -0.02557,-0.05023 0,-0.02763 0.01659,-0.05026 0.03686,-0.05026 0.02026,0 0.03681,0.01132 0.03681,0.02513 0,0.03408 0.0778,0.03196 0.102308,-0.0028 0.01083,-0.01536 0.0035,-0.03671 -0.01633,-0.04743 -0.02053,-0.01113 -0.02634,-0.0332 -0.01356,-0.05133 0.01563,-0.02217 0.01091,-0.02555 -0.01554,-0.01122 -0.02779,0.01506 -0.03288,0.009 -0.01906,-0.02256 0.01271,-0.02905 0.008,-0.03725 -0.01436,-0.02513 -0.02164,0.01172 -0.02731,0.0045 -0.01625,-0.02075 0.0093,-0.02131 0.0019,-0.05209 -0.01663,-0.06841 -0.02573,-0.02273 -0.02326,-0.02622 0.01045,-0.01498 0.03026,0.01008 0.044,-6.67e-4 0.044,-0.03437 0,-0.02696 -0.0123,-0.04235 -0.02737,-0.03419 -0.01559,0.0084 -0.01953,-0.0032 -0.0091,-0.02698 0.01006,-0.02299 0.0091,-0.0418 -0.0022,-0.0418 -0.01132,0 -0.02061,-0.02652 -0.02061,-0.05895 0,-0.03462 0.01636,-0.05796 0.03963,-0.05652 0.02179,0.0013 0.04324,-0.01741 0.04765,-0.04166 0.0044,-0.02425 -0.0038,-0.03771 -0.01813,-0.02992 -0.01438,0.0078 -0.02775,0.0022 -0.02973,-0.01243 -0.002,-0.01463 -0.0052,-0.0388 -0.0072,-0.05372 -0.002,-0.01494 -0.02615,-0.04164 -0.05373,-0.05932 -0.05048,-0.03235 -0.07212,-0.07914 -0.02472,-0.05347 0.04288,0.02323 0.02034,-0.07144 -0.02544,-0.106866 -0.03822,-0.02957 -0.03822,-0.03148 0,-0.017 0.02812,0.01065 0.02567,0.0039 -0.0071,-0.01973 -0.04954,-0.0356 -0.0725,-0.10839 -0.02628,-0.08335 0.05153,0.02791 0.02038,-0.06259 -0.03581,-0.104068 l -0.05974,-0.04405 0.05735,0.06278 0.05731,0.06281 -0.06284,-0.04659 c -0.03457,-0.02561 -0.06683,-0.07649 -0.07166,-0.113047 -0.0052,-0.03921 -0.02434,-0.06361 -0.04672,-0.05954 -0.02088,0.0038 -0.03034,-0.0039 -0.02103,-0.01711 0.0093,-0.01321 0.0052,-0.03031 -0.0089,-0.03802 -0.0061,-0.0032 -0.01148,-0.004 -0.0162,-0.0028 z m -0.360114,0.189185 c -0.0015,-0.0013 -0.01308,0.0062 -0.03581,0.0219 -0.02759,0.01896 -0.05017,0.03876 -0.05017,0.04397 0,0.02067 0.02356,0.0074 0.061,-0.03448 0.01782,-0.01992 0.02645,-0.03009 0.02498,-0.03139 z m -0.146344,0.226093 c -0.02105,0 -0.0143,0.01954 0.01738,0.05023 0.04665,0.04518 0.0471,0.05023 0.0045,0.05023 -0.05919,0 -0.05985,0.03172 -0.0026,0.128687 0.03216,0.05451 0.03623,0.08495 0.0144,0.108005 -0.02107,0.02226 -0.02151,0.06991 -0.0015,0.155219 0.06171,0.262753 0.06448,0.28637 0.03371,0.28637 -0.0169,0 -0.03937,-0.01229 -0.04996,-0.02731 -0.01247,-0.01769 -0.0291,-0.01869 -0.04714,-0.0029 -0.01805,0.01581 -0.01214,0.05104 0.01671,0.09995 0.04201,0.07121 0.04134,0.07627 -0.01188,0.08846 -0.03785,0.0087 -0.05647,0.0344 -0.05647,0.07809 0,0.04643 -0.01511,0.06513 -0.05256,0.06513 -0.07917,0 -0.08343,0.01333 -0.05235,0.163609 0.0257,0.124315 0.02297,0.142401 -0.02636,0.175127 -0.03027,0.02007 -0.07758,0.03687 -0.105163,0.03731 -0.03932,6.3e-4 -0.05017,0.02266 -0.05017,0.102081 0,0.08174 -0.01228,0.105283 -0.06368,0.121952 -0.05308,0.01721 -0.06239,0.037 -0.05583,0.11853 0.0059,0.07284 -0.01085,0.11996 -0.06528,0.184364 -0.07352,0.08699 -0.09152,0.152508 -0.05163,0.188006 0.01182,0.01052 0.02565,-0.0046 0.03068,-0.03352 0.005,-0.02898 0.03406,-0.06437 0.06449,-0.07864 0.03042,-0.01427 0.05529,-0.04383 0.05529,-0.06568 0,-0.02786 0.01783,-0.03563 0.05961,-0.02605 0.03857,0.0088 0.05509,0.0032 0.04689,-0.01594 -0.06565,-0.153323 -0.04957,-0.17014 0.111251,-0.116542 0.10036,0.03345 0.14362,-7.48e-4 0.09719,-0.0768 -0.02678,-0.04387 -0.02653,-0.06031 0.001,-0.07526 0.01941,-0.01051 0.02641,-0.03171 0.01558,-0.04706 -0.01083,-0.01536 -0.0068,-0.02793 0.009,-0.02793 0.01576,0 0.03674,0.0115 0.04664,0.02554 0.03156,0.04475 0.06396,0.0033 0.06381,-0.08151 -8.9e-5,-0.04519 0.009,-0.101097 0.02023,-0.124198 0.01122,-0.0231 0.0066,-0.06474 -0.01045,-0.09255 -0.01698,-0.02781 -0.0309,-0.06963 -0.0309,-0.09295 0,-0.03428 0.008,-0.03658 0.04173,-0.01203 0.06159,0.04481 0.09379,0.01368 0.07876,-0.0761 -0.01196,-0.07141 -0.0073,-0.0775 0.04777,-0.06219 0.07259,0.0202 0.0737,0.01549 0.01822,-0.07776 -0.05627,-0.09457 -0.05432,-0.129932 0.0069,-0.125669 0.05602,0.0039 0.06385,-0.05426 0.02993,-0.222634 -0.01113,-0.05527 -0.0063,-0.165319 0.01083,-0.244567 0.02362,-0.109598 0.02256,-0.162025 -0.0044,-0.219102 -0.0423,-0.08959 -0.155945,-0.202026 -0.20416,-0.202026 z m -3.963819,0.0087 c -0.01353,-0.0051 -0.04251,0.0039 -0.07653,0.03095 -0.109638,0.08697 -0.123613,0.141886 -0.12905,0.507534 -0.0051,0.341307 -0.0027,0.358057 0.04879,0.34374 0.064,-0.0178 0.06665,0.0036 0.01108,0.08883 -0.05728,0.08784 -0.05396,0.132034 0.0086,0.114628 0.04429,-0.01232 0.0499,-0.0019 0.03984,0.07367 -0.01236,0.09282 0.03403,0.118766 0.103484,0.05788 0.05139,-0.04505 0.04469,0.01512 -0.01243,0.111943 -0.03234,0.05483 -0.03675,0.08221 -0.01432,0.08876 0.01785,0.0052 0.03245,0.05942 0.03245,0.120443 0,0.113745 0.01988,0.133745 0.08027,0.08081 0.03627,-0.03179 0.03795,-0.02642 0.04538,0.143186 0.0034,0.07844 0.01089,0.08057 0.168092,0.0481 0.06646,-0.01373 0.07884,-0.0082 0.07884,0.0354 0,0.02843 -0.01291,0.05869 -0.02867,0.06723 -0.01576,0.0085 -0.02868,0.03408 -0.02868,0.05674 0,0.03207 0.0076,0.03452 0.03443,0.01107 0.04758,-0.04171 0.08023,-0.03767 0.08023,0.0099 0,0.02202 0.02473,0.04567 0.05491,0.05258 0.03019,0.0069 0.06329,0.04204 0.07359,0.07801 0.01475,0.05153 0.02428,0.05765 0.04496,0.029 0.03711,-0.05142 0.03667,-0.05285 -0.06029,-0.181162 -0.06645,-0.08793 -0.0854,-0.138583 -0.07884,-0.21097 0.0073,-0.0809 1.5e-5,-0.09538 -0.04865,-0.09586 -0.04798,-4.7e-4 -0.05874,-0.02008 -0.06608,-0.120481 -0.0048,-0.06597 -0.02001,-0.113882 -0.03371,-0.106459 -0.0137,0.0075 -0.05891,-7.8e-5 -0.100461,-0.01667 -0.0559,-0.02233 -0.07172,-0.04367 -0.06083,-0.08199 0.0081,-0.02848 0.02327,-0.09888 0.03371,-0.156433 0.01751,-0.09656 0.01374,-0.105293 -0.04879,-0.113047 -0.04963,-0.0061 -0.07018,-0.02686 -0.07682,-0.07746 -0.0055,-0.04203 -0.02637,-0.06911 -0.05323,-0.06911 -0.03081,0 -0.03792,-0.01326 -0.02351,-0.04394 0.05545,-0.118053 0.05291,-0.136516 -0.01768,-0.127804 -0.03766,0.0047 -0.06676,-0.0029 -0.06465,-0.01667 0.0021,-0.01382 0.01885,-0.102476 0.03715,-0.197022 0.02145,-0.110765 0.02344,-0.182254 0.0056,-0.201033 -0.01808,-0.01909 -0.01394,-0.05078 0.012,-0.09189 0.04834,-0.07657 0.05302,-0.150656 0.0095,-0.150656 -0.022,0 -0.02072,-0.01208 0.0041,-0.03827 0.02777,-0.02933 0.02969,-0.04846 0.01616,-0.0535 z m -0.782108,0.478049 c 0.0052,-0.002 0.01236,-0.0011 0.02023,0.0032 0.01576,0.0085 0.02868,0.02052 0.02868,0.02661 0,0.0061 -0.01291,0.01107 -0.02868,0.01107 -0.01576,0 -0.02868,-0.01198 -0.02868,-0.02661 0,-0.0073 0.0032,-0.01223 0.0084,-0.01424 z m 2.339232,0.37053 c -0.01,-3.64e-4 -0.0213,0.0012 -0.03166,0.0048 -0.02286,0.008 -0.01605,0.01395 0.01734,0.01516 0.03021,0.0011 0.04714,-0.0048 0.03762,-0.01317 -0.0048,-0.0042 -0.01335,-0.0065 -0.0233,-0.0068 z m 0.890839,1.5e-4 c -0.01298,0 -0.026,0.0018 -0.03585,0.0053 -0.0197,0.0069 -0.0036,0.01266 0.03585,0.01266 0.03941,0 0.05552,-0.0057 0.03581,-0.01266 -0.0099,-0.0035 -0.02283,-0.0053 -0.03581,-0.0053 z m 0.487192,0.02491 c -0.01819,0 -0.03637,0.0016 -0.05017,0.0047 -0.02759,0.0063 -0.005,0.01148 0.05017,0.01148 0.05517,0 0.07775,-0.0052 0.05017,-0.01148 -0.01379,-0.0032 -0.03199,-0.0047 -0.05017,-0.0047 z m -0.172669,0.0044 c -0.01301,-0.0018 -0.04438,-2e-4 -0.09643,0.0047 -0.07708,0.0072 -0.185065,0.01302 -0.239964,0.01302 -0.08025,0 -0.09355,0.0066 -0.06788,0.03371 0.01756,0.01854 0.02343,0.04114 0.01306,0.05023 -0.01037,0.0091 -0.0024,0.01652 0.01768,0.01652 0.02121,0 0.02936,0.01635 0.01944,0.03901 -0.0107,0.02443 -0.0053,0.03263 0.01432,0.02197 0.02122,-0.0115 0.02475,0.0013 0.01091,0.03952 -0.01534,0.04236 -0.01126,0.05158 0.01616,0.03673 0.02603,-0.01409 0.03127,-0.0077 0.01826,0.02197 -0.01007,0.02303 -0.0044,0.04181 0.01255,0.04181 0.01696,0 0.02339,0.01695 0.01432,0.03768 -0.0091,0.02073 -0.0044,0.03768 0.01037,0.03768 0.01478,0 0.01944,0.01695 0.01037,0.03768 -0.0091,0.02073 -0.0034,0.03768 0.01255,0.03768 0.01597,0 0.02178,0.02438 0.01288,0.05417 -0.01176,0.03945 -0.0063,0.04882 0.02007,0.03451 0.0267,-0.01446 0.03116,-0.0055 0.01692,0.03378 -0.01196,0.03303 -0.0069,0.05336 0.01319,0.05336 0.01947,0 0.02521,0.02017 0.01432,0.05026 -0.01044,0.02882 -0.0051,0.05023 0.01243,0.05023 0.01683,0 0.02907,0.0085 0.0272,0.01884 -0.0019,0.01036 -0.0019,0.02732 0,0.03768 0.0052,0.02853 0.02583,0.02301 0.08757,-0.02333 0.0309,-0.02319 0.0496,-0.05142 0.04161,-0.06278 -0.008,-0.01136 -1.05e-4,-0.02065 0.01751,-0.02065 0.01762,0 0.02283,-0.01305 0.01159,-0.029 -0.01212,-0.01719 -0.0079,-0.02221 0.01033,-0.01233 0.01693,0.0092 0.04963,1.35e-4 0.07267,-0.02005 0.02304,-0.02019 0.05192,-0.02877 0.06418,-0.01906 0.01227,0.0097 0.01422,-0.0022 0.0043,-0.02635 -0.0099,-0.02418 -0.0048,-0.04394 0.01142,-0.04394 0.0162,0 0.0215,-0.01132 0.01176,-0.02513 -0.0097,-0.01381 -0.0027,-0.02513 0.0157,-0.02513 0.01838,0 0.02599,-0.01695 0.01692,-0.03768 -0.0091,-0.02073 -0.0032,-0.03768 0.01297,-0.03768 0.0162,0 0.02146,-0.01128 0.01171,-0.0251 -0.0097,-0.01381 -0.0027,-0.02513 0.0157,-0.02513 0.01838,0 0.02604,-0.01695 0.01696,-0.03768 -0.0091,-0.02073 -0.0052,-0.03768 0.0086,-0.03768 0.01379,0 0.01779,-0.02438 0.0089,-0.05417 -0.0097,-0.03263 -0.0048,-0.04802 0.01238,-0.03872 0.01713,0.0093 0.02706,-0.02091 0.0249,-0.07563 l -0.0036,-0.09108 -0.213852,0.0034 c -0.158317,0.0025 -0.198941,-0.0031 -0.156506,-0.02142 0.02129,-0.0092 0.02661,-0.01456 0.0136,-0.01641 z m -1.468332,0.0022 c -0.276597,-0.0023 -0.311395,7.8e-4 -0.164524,0.0145 l 0.186269,0.01741 -0.191097,0.0044 c -0.240145,0.0054 -0.281778,0.01967 -0.281778,0.09641 0,0.03865 0.01183,0.0552 0.03174,0.04442 0.02135,-0.01157 0.02544,2.84e-4 0.01243,0.03621 -0.01222,0.03375 -0.0069,0.05336 0.01432,0.05336 0.01865,0 0.02604,0.01741 0.01658,0.03901 -0.01115,0.02548 -0.0056,0.03277 0.01612,0.02101 0.02217,-0.01201 0.02712,-0.0041 0.01491,0.02381 -0.01008,0.02303 -0.0045,0.0418 0.01251,0.0418 0.01696,0 0.02316,0.01753 0.01377,0.03897 -0.01115,0.02547 -0.0056,0.03277 0.01616,0.02101 0.02217,-0.01201 0.02708,-0.0041 0.01486,0.02381 -0.01006,0.02299 -0.0062,0.04181 0.0086,0.04181 0.01477,0 0.01944,0.01695 0.01037,0.03768 -0.0091,0.02075 -8.5e-4,0.03768 0.0183,0.03768 0.01914,0 0.02836,0.01473 0.02049,0.03271 -0.0091,0.02076 0.0081,0.03221 0.04706,0.03139 0.03377,-7.1e-4 0.06408,0.0078 0.06733,0.01891 0.0032,0.01111 0.02963,0.03935 0.05865,0.06278 0.02902,0.02343 0.03282,0.03129 0.0084,0.01748 -0.03864,-0.0219 -0.03928,-0.01947 -0.005,0.01884 0.04676,0.05227 0.05235,0.05302 0.100839,0.01332 0.0206,-0.01687 0.03143,-0.05077 0.02409,-0.07536 -0.0073,-0.02459 0.0019,-0.04471 0.02057,-0.04471 0.02155,0 0.02689,-0.01948 0.01461,-0.0534 -0.01424,-0.03933 -0.0098,-0.04821 0.01692,-0.03374 0.02639,0.01429 0.03183,0.0049 0.02007,-0.03456 -0.0089,-0.02979 -0.0057,-0.05417 0.0071,-0.05417 0.01281,0 0.01602,-0.02438 0.0071,-0.05417 -0.01173,-0.0393 -0.0063,-0.04879 0.0199,-0.03463 0.02856,0.01547 0.02901,0.008 0.0022,-0.03592 -0.01861,-0.03048 -0.02637,-0.062 -0.01721,-0.07003 0.0092,-0.0081 0.01667,-0.0014 0.01667,0.01472 0,0.01612 0.01248,0.02929 0.02775,0.02929 0.01527,0 0.02036,-0.01695 0.01129,-0.03768 -0.0091,-0.02073 -0.0015,-0.03768 0.01692,-0.03768 0.01838,0 0.02544,-0.01128 0.0157,-0.0251 -0.0097,-0.01381 -0.0027,-0.02513 0.0157,-0.02513 0.01843,0 0.02574,-0.01747 0.01633,-0.03897 -0.01115,-0.02548 -0.0056,-0.03277 0.01616,-0.02102 0.02217,0.01201 0.02708,0.0041 0.01486,-0.02381 -0.01007,-0.02299 -0.0058,-0.0418 0.0095,-0.0418 0.01527,0 0.02765,-0.0198 0.0275,-0.04397 -2.27e-4,-0.0393 -0.03744,-0.04425 -0.351088,-0.04684 z m -0.101007,0.206258 c 0.02631,-0.0035 0.05508,0.0032 0.08216,0.02461 0.06672,0.05292 0.06954,0.09478 0.0099,0.14705 -0.05385,0.0472 -0.103123,0.05026 -0.14983,0.0093 -0.07785,-0.06824 -0.02115,-0.170405 0.05777,-0.180978 z m 1.572026,0.0075 c 0.05748,-0.0014 0.117322,0.04543 0.107807,0.118493 -0.0075,0.05754 -0.02545,0.07428 -0.08635,0.08044 -0.09297,0.0094 -0.142997,-0.05596 -0.106927,-0.13969 0.01734,-0.04027 0.05098,-0.05843 0.08547,-0.05925 z m -3.549716,0.03378 c -0.0023,0.0019 0.0011,0.0183 0.0083,0.0506 0.0085,0.038 0.0056,0.06907 -0.0066,0.06907 -0.01212,0 -0.02204,0.03202 -0.02204,0.07117 0,0.04019 0.01558,0.0712 0.03581,0.0712 0.01971,0 0.03585,-0.01012 0.03585,-0.02245 0,-0.01233 0.01287,-0.01542 0.02863,-0.0068 0.01576,0.0085 0.02868,0.0036 0.02868,-0.01107 0,-0.01464 0.01645,-0.02661 0.03657,-0.02661 0.02539,0 0.03324,0.03074 0.02565,0.100498 -0.0086,0.07948 -0.0013,0.100462 0.0351,0.100462 0.03684,0 0.04476,-0.02465 0.03984,-0.123756 -0.0035,-0.07105 -0.01781,-0.117444 -0.03354,-0.108924 -0.01559,0.0084 -0.01948,-0.0032 -0.0091,-0.02698 0.01007,-0.02299 0.005,-0.04181 -0.01117,-0.04181 -0.0162,0 -0.02151,-0.01125 -0.0118,-0.02503 0.01156,-0.0164 -0.0064,-0.01704 -0.05214,-0.0018 -0.05776,0.01925 -0.07544,0.01383 -0.102519,-0.03146 -0.01531,-0.0256 -0.02327,-0.03816 -0.02557,-0.03624 z m 1.999688,0.03146 a 0.04382698,0.03841709 0 0 0 -0.04383,0.03842 0.04382698,0.03841709 0 0 0 0.04383,0.03842 0.04382698,0.03841709 0 0 0 0.04383,-0.03842 0.04382698,0.03841709 0 0 0 -0.04383,-0.03842 z m 1.555822,0.0092 a 0.04382698,0.03841709 0 0 0 -0.04383,0.03842 0.04382698,0.03841709 0 0 0 0.04383,0.03842 0.04382698,0.03841709 0 0 0 0.04383,-0.03842 0.04382698,0.03841709 0 0 0 -0.04383,-0.03842 z m -3.352867,0.214171 c 0.003,-0.0026 0.0069,8.71e-4 0.01155,0.01089 0.0083,0.01814 0.0073,0.03982 -0.0022,0.04817 -0.0095,0.0083 -0.01627,-0.0065 -0.01503,-0.03297 6.75e-4,-0.01463 0.0028,-0.02345 0.0058,-0.02609 z m 0.08585,0.18164 c -0.02793,1.7e-5 -0.03657,0.0115 -0.03657,0.03989 0,0.02654 -0.01287,0.04125 -0.02863,0.03271 -0.01667,-0.009 -0.02868,0.01602 -0.02868,0.05987 0,0.04145 0.01488,0.08343 0.03308,0.09328 0.02202,0.01193 0.02526,0.0068 0.0097,-0.01535 -0.01703,-0.02416 -0.01041,-0.02891 0.02422,-0.01726 0.02623,0.0088 0.04769,0.0061 0.04769,-0.0061 0,-0.01216 0.0161,-0.01995 0.03581,-0.01733 0.07295,0.0097 0.09944,0.04148 0.08598,0.103221 -0.0084,0.03871 -7.2e-4,0.0634 0.01985,0.0634 0.01902,0 0.02455,-0.01366 0.01272,-0.03139 -0.01152,-0.01727 0.0072,-0.0098 0.04147,0.01659 0.03433,0.0264 0.0561,0.05354 0.04836,0.06031 -0.0077,0.0068 0.0083,0.02843 0.03564,0.0481 0.03317,0.02385 0.0354,0.0303 0.0067,0.01943 -0.03445,-0.01305 -0.03394,-0.0097 0.0025,0.017 0.02503,0.0183 0.04049,0.05022 0.03434,0.07095 -0.0062,0.02073 0.0084,0.0094 0.03228,-0.02513 0.05185,-0.07493 0.05744,-0.109916 0.01377,-0.08625 -0.02161,0.01171 -0.02519,-8.23e-4 -0.01125,-0.03934 0.01534,-0.04236 0.0113,-0.05158 -0.01612,-0.03672 -0.02602,0.01409 -0.03132,0.0077 -0.0183,-0.02197 0.01007,-0.02299 0.0062,-0.04181 -0.0086,-0.04181 -0.01478,0 -0.01863,-0.01881 -0.0086,-0.0418 0.0123,-0.02811 0.0073,-0.03584 -0.01524,-0.02362 -0.01988,0.01077 -0.0335,0.0029 -0.0335,-0.01932 0,-0.02061 -0.02601,-0.04471 -0.05776,-0.05354 -0.03175,-0.0088 -0.05091,-0.02575 -0.04256,-0.03758 0.0083,-0.01183 -0.01101,-0.02878 -0.04299,-0.03768 -0.03198,-0.0089 -0.05167,-0.02537 -0.04375,-0.03661 0.0079,-0.01124 -0.01766,-0.02581 -0.05688,-0.03238 -0.01399,-0.0024 -0.02545,-0.0036 -0.03476,-0.0036 z m 1.748052,0.414542 c -0.0024,0.0021 6.75e-4,0.01179 0.0084,0.0297 0.01076,0.02477 0.02678,0.03872 0.0356,0.03099 0.0088,-0.0077 2.1e-5,-0.028 -0.01956,-0.04504 -0.01416,-0.01231 -0.02206,-0.01776 -0.02448,-0.01564 z m 1.410903,0.0039 c -0.01576,0.0032 -0.02498,0.01549 -0.02049,0.02731 0.0045,0.01182 -0.0064,0.03685 -0.02418,0.05564 -0.02045,0.0216 -0.02495,0.07263 -0.01222,0.138696 0.01564,0.08113 0.01203,0.100144 -0.01612,0.08489 -0.02777,-0.01504 -0.03224,0.002 -0.01914,0.07275 0.01181,0.0638 0.0073,0.08712 -0.01436,0.07536 -0.02162,-0.01171 -0.02569,0.0081 -0.01306,0.06348 0.01295,0.05672 0.0088,0.07533 -0.01402,0.06296 -0.02269,-0.01229 -0.02653,0.0031 -0.01276,0.05112 0.01392,0.0486 0.01005,0.06343 -0.01322,0.05082 -0.02299,-0.01245 -0.02669,-7.74e-4 -0.01238,0.03875 0.01534,0.04236 0.0113,0.05155 -0.01612,0.03669 -0.02602,-0.0141 -0.03132,-0.0077 -0.0183,0.02197 0.01007,0.02299 0.005,0.0418 -0.01117,0.0418 -0.0162,0 -0.0215,0.01132 -0.01176,0.02513 0.0097,0.01382 0.0045,0.02513 -0.01171,0.02513 -0.0162,0 -0.02208,0.01685 -0.01306,0.03746 0.0094,0.02136 -0.0033,0.0441 -0.02939,0.05288 -0.02519,0.0085 -0.03952,0.02433 -0.03182,0.03525 0.0077,0.01093 -0.006,0.02662 -0.0306,0.03488 -0.02455,0.0082 -0.03769,0.02488 -0.02918,0.03694 0.0085,0.01207 -0.01003,0.04215 -0.04118,0.06687 -0.03115,0.02471 -0.05664,0.03539 -0.05664,0.0237 0,-0.01169 -0.01727,-5.7e-4 -0.03837,0.02473 -0.03159,0.03787 -0.04806,0.04072 -0.09316,0.01616 -0.04984,-0.02714 -0.04863,-0.02833 0.01331,-0.01336 0.04127,0.01 0.06129,0.0068 0.05084,-0.008 -0.0095,-0.01345 0.01,-0.04573 0.04332,-0.07176 0.05138,-0.04012 0.138664,-0.179755 0.138664,-0.221825 0,-0.007 -0.03092,-4.84e-4 -0.06872,0.01461 -0.04057,0.0162 -0.07535,0.05667 -0.08497,0.0988 -0.009,0.03925 -0.04897,0.09014 -0.08892,0.113085 -0.06785,0.03897 -0.07756,0.03885 -0.147899,-0.0016 -0.04141,-0.02378 -0.08901,-0.07514 -0.105794,-0.114114 -0.01678,-0.03897 -0.06185,-0.08334 -0.100125,-0.09862 -0.05956,-0.02379 -0.067,-0.02196 -0.0518,0.01277 0.0098,0.02232 0.01776,0.05054 0.01776,0.06274 0,0.04748 0.181131,0.199894 0.239376,0.201402 0.05962,0.0016 0.05948,0.0023 -0.0051,0.02498 -0.04021,0.01413 -0.08566,0.01437 -0.11465,5.92e-4 -0.06242,-0.0297 -0.233437,-0.191403 -0.176993,-0.167363 0.02364,0.01007 0.01796,5.13e-4 -0.01264,-0.02124 -0.0306,-0.02175 -0.04622,-0.03956 -0.03472,-0.03956 0.01151,0 -0.0057,-0.02504 -0.0382,-0.05565 -0.03253,-0.0306 -0.05251,-0.07073 -0.04442,-0.0892 0.0091,-0.02078 0.002,-0.02673 -0.01852,-0.0156 -0.02217,0.01201 -0.02713,0.004 -0.01491,-0.02384 0.01007,-0.02299 0.0049,-0.04181 -0.01138,-0.04181 -0.01724,0 -0.02159,-0.02238 -0.01037,-0.05336 0.01424,-0.03933 0.0098,-0.04825 -0.01692,-0.03379 -0.02639,0.0143 -0.03184,0.0049 -0.02007,-0.03456 0.0099,-0.03324 0.0049,-0.04811 -0.01288,-0.03845 -0.01885,0.01022 -0.02184,-0.01297 -0.0086,-0.06595 0.01367,-0.05456 0.01049,-0.07622 -0.0096,-0.06536 -0.01994,0.0108 -0.02428,-0.0148 -0.01293,-0.07614 0.01249,-0.06746 0.008,-0.08745 -0.0167,-0.07407 -0.02499,0.01354 -0.02891,-0.01003 -0.01511,-0.09031 0.01272,-0.07399 0.0093,-0.100612 -0.01071,-0.0835 -0.01616,0.01382 -0.03856,0.07458 -0.04979,0.135053 -0.01586,0.08539 -0.01234,0.105592 0.01574,0.09038 0.02798,-0.01516 0.03179,0.0044 0.0168,0.08659 -0.01433,0.07854 -0.01061,0.101423 0.0144,0.08788 0.02457,-0.01331 0.0288,0.0037 0.01545,0.06219 -0.01193,0.05226 -0.0081,0.07495 0.011,0.06462 0.01899,-0.01028 0.02245,0.0083 0.0097,0.05273 -0.01521,0.05313 -0.01113,0.06405 0.01805,0.04825 0.02728,-0.01478 0.03264,-0.0089 0.0194,0.02134 -0.01008,0.02302 -0.0045,0.04181 0.01251,0.04181 0.01696,0 0.02375,0.01623 0.01507,0.03607 -0.0087,0.01983 -0.0011,0.04037 0.01696,0.04563 0.01841,0.0054 0.01078,0.01697 -0.01742,0.02646 -0.03001,0.01009 -0.04313,0.0069 -0.03266,-0.008 0.0096,-0.01365 0.0031,-0.02484 -0.01457,-0.02484 -0.01762,0 -0.02406,-0.01128 -0.01432,-0.0251 0.0097,-0.01381 0.0033,-0.02513 -0.01432,-0.02513 -0.01762,0 -0.02465,-0.0105 -0.01558,-0.02337 0.0091,-0.01286 0.0014,-0.03158 -0.01704,-0.04159 -0.01965,-0.01064 -0.02591,-0.0074 -0.01511,0.008 0.01014,0.01438 -1.55e-4,0.03966 -0.02288,0.05619 -0.03291,0.02395 -0.05402,0.0197 -0.103693,-0.02087 -0.03768,-0.03077 -0.05535,-0.06689 -0.04466,-0.0913 0.01169,-0.02669 0.0065,-0.03429 -0.01549,-0.02241 -0.02237,0.01212 -0.02708,0.0039 -0.01436,-0.02513 0.01121,-0.02561 0.0074,-0.03687 -0.0094,-0.02775 -0.01558,0.0084 -0.02834,0.0027 -0.02834,-0.01273 0,-0.01544 -0.01291,-0.02112 -0.02868,-0.01258 -0.01576,0.0085 -0.02863,0.0056 -0.02863,-0.0066 0,-0.01217 -0.04978,-0.0205 -0.11062,-0.01851 -0.0913,0.003 -0.108389,-0.0039 -0.09782,-0.03934 0.007,-0.02362 -0.0015,-0.05071 -0.01906,-0.06021 -0.01753,-0.0095 -0.02835,-0.0038 -0.02401,0.0127 0.01003,0.03812 -0.08589,0.0536 -0.11104,0.01792 -0.01181,-0.01675 -0.0039,-0.01979 0.02137,-0.0082 0.02214,0.01024 0.008,-0.0047 -0.0314,-0.03327 -0.03941,-0.02853 -0.08208,-0.05209 -0.09484,-0.0524 -0.01275,-3.06e-4 -0.01502,-0.01215 -0.005,-0.02631 0.01,-0.01416 0.0076,-0.02413 -0.0055,-0.02215 -0.07534,0.01147 -0.120695,-0.0057 -0.105667,-0.04004 0.0091,-0.02073 0.0015,-0.03768 -0.01692,-0.03768 -0.01838,0 -0.02523,-0.0116 -0.01524,-0.02576 0.01,-0.01416 0.0075,-0.02421 -0.0055,-0.02238 -0.05295,0.0075 -0.150726,-0.03464 -0.13434,-0.05788 0.01062,-0.01507 -0.0049,-0.01872 -0.03925,-0.0092 -0.03683,0.01025 -0.0709,1.36e-4 -0.09672,-0.0287 -0.03701,-0.04134 -0.03579,-0.04189 0.01742,-0.0076 0.04269,0.02749 0.03969,0.01959 -0.01179,-0.03106 -0.05718,-0.05625 -0.07672,-0.06266 -0.11297,-0.03694 -0.03574,0.02534 -0.03945,0.02469 -0.02002,-0.0036 0.01637,-0.02382 0.01161,-0.03106 -0.01524,-0.02322 -0.03917,0.01144 -0.08867,0.158083 -0.06142,0.181972 0.008,0.007 0.02861,0.0051 0.04584,-0.0042 0.04128,-0.02237 0.133155,-0.02791 0.118512,-0.0071 -0.0063,0.0089 0.02848,0.0369 0.07725,0.06216 0.04876,0.02525 0.07879,0.03189 0.06671,0.01476 -0.01511,-0.02144 -0.0052,-0.02815 0.03157,-0.02145 0.03564,0.0065 0.05127,0.02831 0.04672,0.06524 -0.0038,0.03052 0.0059,0.0555 0.02149,0.0555 0.01558,0 0.0283,0.01816 0.0283,0.04037 0,0.02556 0.01577,0.03507 0.04299,0.02591 0.02524,-0.0085 0.04299,-3.63e-4 0.04299,0.01973 0,0.01881 0.01934,0.04073 0.04299,0.04869 0.02364,0.008 0.04299,0.0025 0.04299,-0.01196 0,-0.01453 0.01615,-0.02124 0.03586,-0.0149 0.0197,0.0063 0.03257,0.0242 0.02863,0.03974 -0.0039,0.01554 0.0066,0.02827 0.02321,0.02827 0.01669,0 0.02378,0.0093 0.01574,0.02072 -0.008,0.01138 0.01376,0.01987 0.04845,0.01884 0.0445,-0.0013 0.06312,0.01284 0.06313,0.04806 2.2e-5,0.02872 0.02273,0.05371 0.05353,0.05892 0.03149,0.0054 0.04593,-0.0017 0.03514,-0.01696 -0.0105,-0.01488 0.0056,-0.02445 0.03762,-0.02234 0.03078,0.002 0.05365,0.01548 0.0508,0.02988 -0.0029,0.0144 0.02353,0.02485 0.05865,0.02322 0.03511,-0.0017 0.05772,0.0057 0.05029,0.01623 -0.0074,0.01054 0.0066,0.02592 0.03115,0.03419 0.02497,0.0084 0.03556,0.02788 0.02405,0.04419 -0.01284,0.01821 -0.0081,0.02238 0.01272,0.01111 0.0411,-0.02226 0.113484,0.03696 0.09727,0.07959 -0.0065,0.01715 0.0029,0.03117 0.0209,0.03117 0.01801,0 0.02586,0.0098 0.01746,0.02168 -0.0084,0.01191 0.01988,0.02072 0.0628,0.01961 0.04293,-0.0011 0.07541,0.01028 0.07217,0.02528 -0.0032,0.015 0.02897,0.05418 0.07162,0.0871 l 0.07754,0.05987 -0.05731,-0.06399 c -0.03786,-0.04228 -0.02849,-0.03802 0.02754,0.01255 0.04666,0.04211 0.102731,0.07298 0.124642,0.0686 0.02429,-0.0048 0.03174,0.0036 0.01906,0.02156 -0.01477,0.02095 -0.0021,0.02426 0.04371,0.01152 0.04509,-0.01255 0.05837,-0.0093 0.04416,0.01089 -0.01425,0.02022 0.0018,0.02394 0.05373,0.01251 0.04073,-0.009 0.07408,-0.0066 0.0741,0.0053 1.5e-5,0.01186 0.07079,0.02216 0.157303,0.02289 0.09838,8.28e-4 0.14401,-0.007 0.121788,-0.02087 -0.02144,-0.01339 0.01362,-0.01618 0.08837,-0.007 0.09206,0.01128 0.118475,0.0075 0.10277,-0.0148 -0.0144,-0.02044 -0.0059,-0.02488 0.02658,-0.01394 0.02722,0.0092 0.04769,0.0038 0.04769,-0.01248 0,-0.01569 0.0084,-0.02117 0.01864,-0.01218 0.01027,0.009 0.03701,-0.0032 0.05945,-0.02719 0.02463,-0.02632 0.03222,-0.02864 0.01914,-0.0059 -0.0119,0.02073 0.03648,-0.0075 0.107514,-0.06281 0.07103,-0.05527 0.122471,-0.111779 0.114315,-0.125595 -0.0082,-0.01381 0.0059,-0.01043 0.03111,0.0075 0.05438,0.03862 0.08881,0.0047 0.06062,-0.05961 -0.01421,-0.03245 -0.0093,-0.03866 0.01863,-0.02352 0.02526,0.01368 0.03112,0.01087 0.01751,-0.0084 -0.01125,-0.01595 -0.03783,-0.029 -0.05907,-0.029 -0.0251,0 -0.0331,-0.01845 -0.02288,-0.0527 0.0143,-0.04794 0.01031,-0.04973 -0.04438,-0.0198 -0.03305,0.0181 -0.05444,0.03787 -0.04752,0.04394 0.0069,0.0061 -0.0098,0.02711 -0.03711,0.04677 -0.03317,0.02385 -0.0354,0.03034 -0.0067,0.01946 0.02364,-0.009 0.01796,0.0015 -0.01264,0.02325 -0.0306,0.02175 -0.04351,0.03988 -0.02868,0.0403 0.01484,4.21e-4 0.0042,0.01243 -0.02376,0.02668 -0.02792,0.01424 -0.04418,0.03522 -0.03615,0.04662 0.008,0.0114 -0.0071,0.03614 -0.03359,0.05498 -0.04102,0.02916 -0.04452,0.02894 -0.02364,-0.0014 0.01893,-0.02752 0.012,-0.0318 -0.03031,-0.01877 -0.05319,0.01637 -0.05314,0.01572 7.72e-4,-0.02087 0.0306,-0.02076 0.04422,-0.03772 0.03031,-0.03772 -0.01391,0 -2.44e-4,-0.01781 0.03035,-0.03956 0.0306,-0.02174 0.03968,-0.03246 0.02016,-0.02381 -0.02337,0.01036 -0.02967,0.0024 -0.01843,-0.02325 0.0094,-0.02145 0.02819,-0.03901 0.04177,-0.03901 0.01359,0 0.01645,-0.01882 0.0064,-0.04181 -0.01157,-0.02644 -0.0069,-0.03564 0.01255,-0.02506 0.01997,0.01082 0.02516,-0.0025 0.0147,-0.0375 -0.01037,-0.03473 -0.0052,-0.04827 0.01432,-0.03768 0.0192,0.01041 0.02494,-0.0021 0.01549,-0.03374 -0.0083,-0.02765 -0.0029,-0.05031 0.01205,-0.05031 0.01487,0 0.02108,-0.03552 0.01381,-0.07893 -0.0091,-0.05409 -0.0031,-0.07344 0.01889,-0.06153 0.02228,0.01207 0.0267,-0.0061 0.01457,-0.05925 -0.01105,-0.04846 -0.0058,-0.07662 0.01423,-0.07662 0.02106,0 0.02577,-0.03779 0.01406,-0.112679 -0.0097,-0.06198 -0.006,-0.12701 0.0081,-0.144473 0.03476,-0.04295 0.03202,-0.145254 -0.0037,-0.138034 z m 1.246672,0.09373 c -0.0015,-0.0013 -0.01312,0.0063 -0.03585,0.02193 -0.02759,0.01896 -0.05013,0.03873 -0.05013,0.04394 0,0.02068 0.02351,0.0074 0.06096,-0.03448 0.01782,-0.01992 0.0265,-0.03009 0.02502,-0.03139 z m -1.861066,0.465913 c -0.0528,-0.0012 -0.109335,-5.33e-4 -0.167547,0.0024 -0.260325,0.01308 -0.331825,0.04061 -0.304951,0.117315 0.02766,0.07894 0.03397,0.08075 0.09962,0.02867 0.04537,-0.036 0.07051,-0.04068 0.107682,-0.02013 0.09055,0.05006 0.0578,0.09732 -0.06167,0.08902 -0.127174,-0.0088 -0.120775,0.02225 0.02011,0.09755 0.121574,0.06498 0.346742,0.06408 0.470147,-0.0018 0.111666,-0.05968 0.206177,-0.212141 0.157806,-0.254539 -0.03776,-0.0331 -0.162797,-0.05464 -0.321197,-0.0584 z m 0.183206,0.116653 c 0.03191,0.0014 0.0586,0.01567 0.0586,0.04169 0,0.01826 -0.04193,0.04864 -0.09316,0.06753 -0.103734,0.03823 -0.125216,0.0095 -0.05542,-0.07422 0.02092,-0.02508 0.05806,-0.03643 0.08997,-0.035 z m -0.787482,0.276142 c 0.009,-4.49e-4 0.01694,0.0013 0.02166,0.0055 0.0095,0.0083 0.0014,0.01505 -0.01792,0.01505 -0.01932,0 -0.02703,0.0115 -0.01713,0.02554 0.0099,0.01404 0.03201,0.01795 0.04912,0.0087 0.01768,-0.0096 0.02293,-0.0053 0.01217,0.01001 -0.01041,0.01477 -0.0028,0.0326 0.01704,0.03959 0.0206,0.0073 0.02256,0.01355 0.0046,0.01468 -0.05231,0.0033 -0.134939,-0.09079 -0.09752,-0.11106 0.0089,-0.0048 0.01897,-0.0075 0.02796,-0.008 z m 0.831772,0.121032 c -0.0015,-0.0013 -0.01312,0.0063 -0.03586,0.02193 -0.02759,0.01896 -0.05013,0.03872 -0.05013,0.04394 0,0.02067 0.02351,0.0074 0.06096,-0.03448 0.01782,-0.01992 0.0265,-0.03009 0.02503,-0.03139 z m -0.315279,0.154005 c 0.01298,0 0.026,0.0018 0.03586,0.0053 0.0197,0.0069 0.0036,0.01266 -0.03586,0.01266 -0.03941,0 -0.05552,-0.0057 -0.03581,-0.01266 0.0098,-0.0035 0.02282,-0.0053 0.03581,-0.0053 z" />
  </g>
</svg>
