<?xml version="1.0" encoding="UTF-8" standalone="no"?>
<svg
   width="99.999992"
   height="58"
   viewBox="0 0 26.458332 15.345834"
   version="1.1"
   id="svg3089"
   inkscape:version="1.4.2 (ebf0e940d0, 2025-05-08)"
   sodipodi:docname="fish.svg"
   xmlns:inkscape="http://www.inkscape.org/namespaces/inkscape"
   xmlns:sodipodi="http://sodipodi.sourceforge.net/DTD/sodipodi-0.dtd"
   xmlns="http://www.w3.org/2000/svg"
   xmlns:svg="http://www.w3.org/2000/svg"
   xmlns:rdf="http://www.w3.org/1999/02/22-rdf-syntax-ns#"
   xmlns:cc="http://creativecommons.org/ns#"
   xmlns:dc="http://purl.org/dc/elements/1.1/">
  <defs
     id="defs3083" />
  <sodipodi:namedview
     units="px"
     id="base"
     pagecolor="#ffffff"
     bordercolor="#666666"
     borderopacity="1.0"
     inkscape:pageopacity="0.0"
     inkscape:pageshadow="2"
     inkscape:zoom="8"
     inkscape:cx="42.125"
     inkscape:cy="36.125"
     inkscape:document-units="mm"
     inkscape:current-layer="layer1"
     inkscape:document-rotation="0"
     showgrid="false"
     fit-margin-top="0"
     fit-margin-left="0"
     fit-margin-right="0"
     fit-margin-bottom="0"
     inkscape:window-width="1920"
     inkscape:window-height="1131"
     inkscape:window-x="0"
     inkscape:window-y="32"
     inkscape:window-maximized="1"
     inkscape:showpageshadow="2"
     inkscape:pagecheckerboard="0"
     inkscape:deskcolor="#d1d1d1" />
  <metadata
     id="metadata3086">
    <rdf:RDF>
      <cc:Work
         rdf:about="">
        <dc:format>image/svg+xml</dc:format>
        <dc:type
           rdf:resource="http://purl.org/dc/dcmitype/StillImage" />
        <dc:title />
      </cc:Work>
    </rdf:RDF>
  </metadata>
  <g
     inkscape:label="Calque 1"
     inkscape:groupmode="layer"
     id="layer1"
     transform="translate(-94.116072,-26.411087)">
    <g
       transform="matrix(0.26446859,0,0,0.26692382,50.406121,-46.896099)"
       id="g2925">
      <path
         fill="#bb8d5d"
         d="m 215.28875,324.64099 v 7.5 l -50,-25 v -7.5 z"
         id="path546" />
      <path
         fill="#9e7758"
         d="m 215.28875,332.14099 v -7.5 l 50,-25 v 7.5 z"
         id="path548" />
      <path
         fill="#9cd5e2"
         d="m 265.28875,299.64099 -50,25 -50,-25 50,-25 z"
         id="path550" />
    </g>
    <path
       id="path6694"
       sodipodi:nodetypes="cssssssscccssscsssscccsssssssscscccssssccssssssc"
       style="fill:#ffffff;fill-opacity:0.98846;stroke:#000000;stroke-width:0.0845121"
       inkscape:connector-curvature="0"
       d="m 106.60207,30.570208 c 0,0 0.78489,-0.292506 1.43727,-0.618096 0.34165,-0.170506 0.83644,-0.554154 0.88357,-0.479554 0.0471,0.0746 0.27096,0.351672 0.32987,0.682036 0.0589,0.330364 -0.0589,0.351672 0.48302,0.415614 0.54192,0.06394 1.35481,0.319705 1.63755,0.436929 0.28275,0.117225 0.52204,0.385311 0.56549,0.404956 0.0707,0.03197 0.57726,0.277073 0.82467,0.490213 0.24739,0.213131 0.47124,0.554153 0.47124,0.554153 -0.0845,0.238323 -0.39132,0.152663 -0.55371,0.468897 0.2362,0.05123 0.32243,-0.169937 0.48302,-0.213132 0.0471,0 0.14137,0.159849 0.10602,0.202482 -0.0354,0.04263 -0.43588,0.266423 -0.53014,0.309047 -0.0943,0.04263 -0.12958,0.04263 -0.15315,0.159849 -0.0236,0.117224 -0.20028,0.372989 -0.20028,0.372989 0,0 0.0589,-0.266423 0.0825,-0.362331 0.0236,-0.09591 -0.10602,-0.05328 -0.1178,-0.04263 -0.0118,0.01066 -1.01316,0.341014 -1.23699,0.43693 -0.22384,0.09591 -0.81289,0.255765 -1.16634,0.245107 -0.35342,-0.01066 -0.35342,0.02132 -0.45945,0.170506 -0.1028,0.252164 -0.70922,1.126426 -1.03671,0.916477 -0.45504,-0.238813 -0.64149,-0.64212 -0.64795,-1.10834 0.0236,-0.08526 -0.0471,-0.106566 -0.25918,-0.138541 -0.21206,-0.03197 -0.38877,-0.0746 -0.90715,-0.170507 -0.51837,-0.09591 -0.61261,-0.213132 -0.65974,-0.159848 -0.0471,0.05328 -0.15314,0.511529 -0.45945,0.692694 -0.3063,0.181165 -0.3063,0.266423 -0.53015,0.08526 -0.22383,-0.181166 -0.25918,-0.255765 -0.32986,-0.43693 -0.0707,-0.181166 -0.23562,-0.362331 -0.15315,-0.404956 0.0825,-0.04263 0.18849,-0.181165 0.36521,-0.213131 0.17671,-0.03197 0.24739,-0.04263 0.24739,-0.04263 0,0 -0.44767,-0.22379 -0.87178,-0.202481 -0.42412,0.02132 -0.91888,0.09591 -1.04852,0.191823 -0.44563,0.3133 -0.73746,0.695162 -1.21344,0.927167 -0.5176,0.224691 -1.29669,0.205038 -0.90714,-0.479554 0.0942,-0.15985 0.34164,-0.436931 0.53014,-0.607437 0.18849,-0.170507 0.25918,-0.287731 0.27096,-0.458239 0.0118,-0.170507 -0.11781,-0.415613 -0.31808,-0.618095 -0.20028,-0.202481 -0.55371,-0.490212 -0.55371,-0.724661 0,-0.234448 0.0118,-0.426271 0.11781,-0.468896 0.51675,-0.329922 1.19815,0.248788 1.56691,0.532838 0.23562,0.181165 0.21794,0.250435 0.72453,0.463567 0.50657,0.213132 0.97778,0.197152 1.11916,0.165177 0.24618,-0.05567 0.39465,-0.0746 0.37109,-0.117223 -0.0236,-0.04263 -0.10603,-0.01066 -0.25918,-0.117225 -0.15316,-0.106566 -0.14137,-0.213131 0.0707,-0.309047 0.21205,-0.09591 0.62439,-0.394305 1.07206,-0.575471 0.44767,-0.181165 0.82467,-0.255764 0.81289,-0.255764 z" />
    <path
       id="path6696"
       sodipodi:nodetypes="csssssscccc"
       style="fill:#000000;stroke-width:0.0845121"
       inkscape:connector-curvature="0"
       d="m 111.52033,31.989693 c 0,0 -0.10258,0.494312 0.0388,0.707452 0.14137,0.213132 0.42412,0.265555 0.32713,0.184179 -0.1486,-0.124683 -0.15506,-0.387521 0.0806,-0.344896 0.23562,0.04263 0.35306,0.08806 0.28394,0.134232 -0.2015,0.134578 -0.47079,0.105746 -0.23562,0.213132 0.0634,0.02896 1.1906,-0.238106 1.01315,-0.511529 -0.14559,-0.224369 -0.35343,-0.341014 -0.35343,-0.341014 0,0 0.0486,0.331007 -0.0457,0.437573 -0.34611,0.500653 -0.91221,0.591425 -1.03812,-0.07524 -0.0236,-0.277081 -0.0943,-0.38257 -0.0707,-0.403886 z" />
    <path
       id="path6698"
       d="m 111.4608,31.431062 c -0.56043,0.480567 -0.69346,0.878698 -0.3582,1.507098 0.1,0.173313 0.44984,0.384306 0.44984,0.384306 h -0.1 c 0,0 -0.1083,-0.01507 -0.22491,-0.113028 -0.34647,-0.257091 -0.45102,-0.63045 -0.56849,-1.000955 0,0 0.0376,0.401749 0.077,0.503588 0.0583,0.15071 0.0666,0.361704 0.48316,0.632981 0.0847,0.05517 0.40819,0.105497 0.40819,0.105497 0,0 0.33322,0.04521 0.64144,-0.30142 0.30824,-0.346632 0.0916,-0.150709 0.13329,-0.135638 0.0417,0.01507 0.16661,0.105497 0.0916,0.15071 -0.075,0.04521 -0.34987,0.04521 -0.4665,0.04521 -0.11663,0 -0.55813,-0.120568 -0.67476,-0.308959 -0.12143,-0.525644 -0.0479,-0.667103 0.22491,-1.024827 0.14163,-0.128108 0.41652,-0.30142 0.41652,-0.30142 0,0 0.0333,0.04522 -0.14995,-0.113028 -0.18327,-0.15825 -0.1666,-0.245549 -0.2999,-0.09484 l 0.0969,-0.08731 c 0,0 -0.87288,0.01324 -1.19576,0.843412 -0.0575,0.738639 -0.0336,1.25704 0.87883,1.539089 0,0 -0.0439,-0.02778 -0.1772,-0.09559 -0.13329,-0.06782 -0.44564,-0.397915 -0.54207,-0.673243 -0.0715,-0.204218 -0.089,-0.434254 0.0422,-0.818817 0.17422,-0.51034 0.81377,-0.642884 0.81377,-0.642884 z"
       sodipodi:nodetypes="ccccccssccssscccsccccssscc"
       style="fill:#000000;stroke-width:0.0845121"
       inkscape:connector-curvature="0" />
    <g
       id="g6700"
       style="stroke:#000000"
       transform="matrix(0.08885741,0,0,0.08037857,87.377776,-14.72392)">
      <ellipse
         id="path6702"
         style="fill:#ffffff;fill-opacity:0.98846;stroke:#000000;stroke-width:0.49181;stroke-linecap:round"
         transform="translate(-1.0607,-0.92808)"
         cx="279.1525"
         cy="583.5531"
         rx="3.9111843"
         ry="4.043767" />
      <ellipse
         id="path6704"
         style="fill:#000000;fill-opacity:0.98846;stroke:#000000;stroke-width:0.49181;stroke-linecap:round"
         transform="translate(-0.33145,-0.3978)"
         cx="278.95361"
         cy="583.02283"
         rx="1.7235727"
         ry="1.7898641" />
    </g>
    <g
       id="g6706"
       transform="matrix(0.08885741,0,0,0.08037857,87.322684,-14.847542)">
      <path
         id="path6708"
         d="m 242.03,552.06 c 2.5522,8.9825 2.5312,13.437 2.5312,13.438 l 1.0312,-0.15625 c -0.3275,-2.6854 -0.5442,-4.6967 -1.25,-7.3125 -0.49719,-1.6573 -2.3125,-5.9688 -2.3125,-5.9688 z"
         sodipodi:nodetypes="ccccc"
         style="fill:#000000"
         inkscape:connector-curvature="0" />
      <path
         id="path6710"
         sodipodi:nodetypes="ccccc"
         style="fill:#000000"
         inkscape:connector-curvature="0"
         d="m 239.45,553.29 c 2.5285,8.4507 2.5077,12.642 2.5077,12.642 l 1.0217,-0.147 c -0.32445,-2.5265 -0.53914,-4.4187 -1.2384,-6.8796 -0.49256,-1.5592 -2.291,-5.6154 -2.291,-5.6154 z" />
      <path
         id="path6712"
         d="m 236.5,555.21 c 2.386,7.498 2.3664,11.217 2.3664,11.217 l 0.96409,-0.13043 c -0.30617,-2.2416 -0.50876,-3.9205 -1.1686,-6.104 -0.4648,-1.3834 -2.1619,-4.9823 -2.1619,-4.9823 z"
         sodipodi:nodetypes="ccccc"
         style="fill:#000000"
         inkscape:connector-curvature="0" />
      <path
         id="path6714"
         sodipodi:nodetypes="ccccc"
         style="fill:#000000"
         inkscape:connector-curvature="0"
         d="m 233.61,557.13 c 2.1485,6.5702 2.1309,9.8578 2.1309,9.8578 l 0.86814,-0.14334 c -0.2757,-1.9642 -0.45813,-3.4354 -1.0523,-5.3486 -0.41854,-1.2122 -1.9467,-4.3658 -1.9467,-4.3658 z" />
      <path
         id="path6716"
         d="m 230.79,558.56 c 2.0765,6.04 2.0594,9.0623 2.0594,9.0623 l 0.807,-0.19271 c -0.26646,-1.8057 -0.41073,-3.0972 -0.98497,-4.8561 -0.40451,-1.1144 -1.8815,-4.0135 -1.8815,-4.0135 z"
         sodipodi:nodetypes="ccccc"
         style="fill:#000000"
         inkscape:connector-curvature="0" />
      <path
         id="path6718"
         sodipodi:nodetypes="ccccc"
         style="fill:#000000"
         inkscape:connector-curvature="0"
         d="m 227.91,559.88 c 2.0285,5.6644 2.0118,8.4988 2.0118,8.4988 l 0.78834,-0.18073 c -0.2603,-1.6934 -0.40123,-2.9046 -0.96219,-4.5541 -0.39516,-1.0451 -1.838,-3.7639 -1.838,-3.7639 z" />
      <path
         id="path6720"
         d="m 225.72,561.01 c 1.9564,5.2888 1.9404,7.9353 1.9404,7.9353 l 0.76034,-0.16875 c -0.25106,-1.5812 -0.38698,-2.712 -0.92802,-4.2522 -0.38113,-0.97581 -1.7727,-3.5144 -1.7727,-3.5144 z"
         sodipodi:nodetypes="ccccc"
         style="fill:#000000"
         inkscape:connector-curvature="0" />
      <path
         id="path6722"
         sodipodi:nodetypes="ccccc"
         style="fill:#000000"
         inkscape:connector-curvature="0"
         d="m 223.5,562.21 c 1.9084,4.8691 1.8927,7.3055 1.8927,7.3055 l 0.74168,-0.15536 c -0.2449,-1.4557 -0.37748,-2.4968 -0.90524,-3.9147 -0.37178,-0.89837 -1.7292,-3.2355 -1.7292,-3.2355 z" />
      <path
         id="path6724"
         d="m 221.08,563.27 c 1.9084,4.5819 1.9259,7.0072 1.9259,7.0072 l 0.70853,-0.27878 c -0.2449,-1.3698 -0.37748,-2.3495 -0.90524,-3.6838 -0.37178,-0.84538 -1.7292,-3.0446 -1.7292,-3.0446 z"
         sodipodi:nodetypes="ccccc"
         style="fill:#000000"
         inkscape:connector-curvature="0" />
      <path
         id="path6726"
         sodipodi:nodetypes="ccccc"
         style="fill:#000000"
         inkscape:connector-curvature="0"
         d="m 218.52,564.17 c 2.0575,4.5169 2.117,6.8089 2.117,6.8089 l 0.76964,-0.20357 c -0.28966,-1.3611 -0.48742,-2.3028 -1.0586,-3.619 -0.39928,-0.83274 -1.828,-2.9863 -1.828,-2.9863 z" />
      <path
         id="path6728"
         d="m 213.25,566.23 c 1.9858,4.407 2.0432,6.6432 2.0432,6.6432 l 0.64454,-0.23256 c -0.27957,-1.3279 -0.37215,-2.2128 -0.92344,-3.497 -0.38537,-0.81247 -1.7643,-2.9136 -1.7643,-2.9136 z"
         sodipodi:nodetypes="ccccc"
         style="fill:#000000"
         inkscape:connector-curvature="0" />
      <path
         id="path6730"
         sodipodi:nodetypes="ccccc"
         style="fill:#000000"
         inkscape:connector-curvature="0"
         d="m 215.63,565.33 c 2.0575,4.407 2.117,6.6432 2.117,6.6432 l 0.73649,-0.29885 c -0.28966,-1.3279 -0.45427,-2.1465 -1.0255,-3.4307 -0.39928,-0.81247 -1.828,-2.9136 -1.828,-2.9136 z" />
      <path
         id="path6732"
         sodipodi:nodetypes="ccccc"
         style="fill:#000000"
         inkscape:connector-curvature="0"
         d="m 207.94,568.37 c 2.1663,4.3211 2.3161,6.553 2.3161,6.5531 l 0.63437,-0.25901 c -0.33423,-1.3152 -0.46331,-2.1955 -1.0672,-3.4558 -0.41863,-0.79585 -1.8832,-2.8382 -1.8832,-2.8382 z" />
      <path
         id="path6734"
         d="m 210.7,567.19 c 1.9858,4.407 2.0432,6.6432 2.0432,6.6432 l 0.64454,-0.23256 c -0.27957,-1.3279 -0.37215,-2.2128 -0.92344,-3.497 -0.38537,-0.81247 -1.7643,-2.9136 -1.7643,-2.9136 z"
         sodipodi:nodetypes="ccccc"
         style="fill:#000000"
         inkscape:connector-curvature="0" />
      <path
         id="path6736"
         d="m 205.28,569.55 c 2.3083,4.247 2.5319,6.4727 2.5319,6.4728 l 0.62544,-0.27988 c -0.37761,-1.3034 -0.53578,-2.1789 -1.1811,-3.4186 -0.44476,-0.78155 -1.9762,-2.7743 -1.9762,-2.7743 z"
         sodipodi:nodetypes="ccccc"
         style="fill:#000000"
         inkscape:connector-curvature="0" />
      <path
         id="path6738"
         sodipodi:nodetypes="ccccc"
         style="fill:#000000"
         inkscape:connector-curvature="0"
         d="m 202.58,570.88 c 2.5514,4.1055 2.904,6.3145 2.9041,6.3145 l 0.6081,-0.31578 c -0.45278,-1.2793 -0.6616,-2.1441 -1.3779,-3.3441 -0.48946,-0.75436 -2.1342,-2.6546 -2.1342,-2.6546 z" />
      <path
         id="path6740"
         d="m 199.89,572.67 c 2.5273,3.89 2.8766,5.9831 2.8766,5.9831 l 0.60236,-0.2992 c -0.44851,-1.2121 -0.65536,-2.0315 -1.3649,-3.1686 -0.48484,-0.71476 -2.1141,-2.5153 -2.1141,-2.5153 z"
         sodipodi:nodetypes="ccccc"
         style="fill:#000000"
         inkscape:connector-curvature="0" />
      <path
         id="path6742"
         sodipodi:nodetypes="ccccc"
         style="fill:#000000"
         inkscape:connector-curvature="0"
         d="m 197.64,574.19 c 2.6236,3.7176 2.9863,5.7179 2.9863,5.7179 l 0.62532,-0.28594 c -0.4656,-1.1584 -0.68034,-1.9415 -1.4169,-3.0281 -0.50331,-0.68308 -2.1946,-2.4038 -2.1946,-2.4038 z" />
      <path
         id="path6744"
         d="m 195.27,575.58 c 2.8192,3.5715 3.2887,5.5495 3.2887,5.5495 l 0.60909,-0.31907 c -0.52707,-1.1318 -0.78351,-1.9022 -1.5773,-2.9478 -0.53923,-0.6551 -2.3204,-2.2826 -2.3204,-2.2826 z"
         sodipodi:nodetypes="ccccc"
         style="fill:#000000"
         inkscape:connector-curvature="0" />
    </g>
    <g
       id="g6746"
       transform="matrix(0.08885741,0,0,0.08037857,87.322684,-14.847542)">
      <path
         id="path6748"
         d="m 235.12,604.33 c 0.42103,-7.6223 3.4418,-15.12 7.2226,-21.645 3.1081,-5.364 8.4109,-11.943 13.132,-15.491 0,0 -9.6468,10.246 -12.441,16.082 -0.95186,1.988 -6.0484,9.0749 -7.9132,21.055 z"
         sodipodi:nodetypes="cscsc"
         style="fill:#000000;stroke-width:0"
         inkscape:connector-curvature="0" />
      <path
         id="path6750"
         sodipodi:nodetypes="cscsc"
         style="fill:#000000;stroke-width:0"
         inkscape:connector-curvature="0"
         d="m 229.68,603.4 c 0.43654,-7.8147 3.3034,-14.574 7.2236,-21.263 3.2226,-5.4995 8.7208,-12.245 13.616,-15.883 0,0 -10.002,10.504 -12.899,16.488 -0.98693,2.0382 -6.0061,8.3759 -7.9396,20.658 z" />
      <path
         id="path6752"
         d="m 224.24,603.25 c 0.43654,-7.8147 3.436,-14.043 7.3562,-20.733 3.2226,-5.4995 8.986,-12.51 13.881,-16.148 0,0 -10.267,10.77 -13.165,16.753 -0.98693,2.0382 -6.1386,7.8456 -8.0722,20.128 z"
         sodipodi:nodetypes="cscsc"
         style="fill:#000000;stroke-width:0"
         inkscape:connector-curvature="0" />
      <path
         id="path6754"
         sodipodi:nodetypes="cscsc"
         style="fill:#000000;stroke-width:0"
         inkscape:connector-curvature="0"
         d="m 221.52,601.28 c 0.41193,-7.3401 3.2352,-12.9 6.9343,-19.184 3.0409,-5.1654 8.7577,-11.884 13.376,-15.301 0,0 -9.9669,10.249 -12.701,15.869 -0.93128,1.9144 -5.7855,7.0791 -7.61,18.615 z" />
      <path
         id="path6756"
         d="m 218.8,600.06 c 0.39603,-7.2438 2.8453,-11.938 6.4017,-18.14 2.9236,-5.0977 7.9117,-11.35 12.352,-14.722 0,0 -9.0742,9.737 -11.703,15.283 -0.89536,1.8893 -5.2971,6.1934 -7.0513,17.578 z"
         sodipodi:nodetypes="cscsc"
         style="fill:#000000;stroke-width:0"
         inkscape:connector-curvature="0" />
      <path
         id="path6758"
         sodipodi:nodetypes="cscsc"
         style="fill:#000000;stroke-width:0"
         inkscape:connector-curvature="0"
         d="m 237.84,604.62 c 0.41601,-7.6814 3.4008,-15.237 7.1366,-21.813 3.0711,-5.4056 8.3108,-12.036 12.975,-15.612 0,0 -9.5319,10.325 -12.293,16.206 -0.94052,2.0034 -5.9763,9.1452 -7.819,21.218 z" />
      <path
         id="path6760"
         d="m 246,604.09 c 0.39662,-7.1488 3.2423,-14.181 6.8039,-20.301 2.9279,-5.0308 7.9234,-11.201 12.37,-14.529 0,0 -9.0876,9.6093 -11.72,15.083 -0.89667,1.8645 -5.6978,8.5112 -7.4545,19.747 z"
         sodipodi:nodetypes="cscsc"
         style="fill:#000000;stroke-width:0"
         inkscape:connector-curvature="0" />
      <path
         id="path6762"
         sodipodi:nodetypes="cscsc"
         style="fill:#000000;stroke-width:0"
         inkscape:connector-curvature="0"
         d="m 243.28,604.33 c 0.39388,-7.3144 3.2198,-14.509 6.7569,-20.771 2.9077,-5.1474 7.8686,-11.461 12.285,-14.866 0,0 -9.0248,9.8319 -11.639,15.432 -0.89047,1.9077 -5.6584,8.7083 -7.403,20.204 z" />
      <path
         id="path6764"
         d="m 240.56,604.33 c 0.41327,-7.5453 3.3784,-14.967 7.0895,-21.427 3.0508,-5.3099 8.256,-11.823 12.89,-15.335 0,0 -9.4691,10.142 -12.212,15.919 -0.93432,1.968 -5.9369,8.9832 -7.7674,20.842 z"
         sodipodi:nodetypes="cscsc"
         style="fill:#000000;stroke-width:0"
         inkscape:connector-curvature="0" />
      <path
         id="path6766"
         sodipodi:nodetypes="cscsc"
         style="fill:#000000;stroke-width:0"
         inkscape:connector-curvature="0"
         d="m 215.95,600.05 c 0.40303,-7.2 2.8956,-11.866 6.5148,-18.03 2.9753,-5.0668 8.0515,-11.281 12.571,-14.633 0,0 -9.2346,9.6781 -11.909,15.191 -0.91118,1.8779 -5.3908,6.156 -7.1759,17.472 z" />
      <path
         id="path6768"
         d="m 213.36,598.75 c 0.36971,-6.7086 2.6562,-11.056 5.9763,-16.799 2.7293,-4.721 7.3859,-10.512 11.531,-13.634 0,0 -8.4712,9.0176 -10.925,14.154 -0.83586,1.7497 -4.9451,5.7358 -6.5827,16.28 z"
         sodipodi:nodetypes="cscsc"
         style="fill:#000000;stroke-width:0"
         inkscape:connector-curvature="0" />
      <path
         id="path6770"
         sodipodi:nodetypes="cscsc"
         style="fill:#000000;stroke-width:0"
         inkscape:connector-curvature="0"
         d="m 210.64,598.82 c 0.33548,-6.5583 2.4102,-10.809 5.4229,-16.423 2.4766,-4.6153 6.702,-10.276 10.464,-13.329 0,0 -7.6868,8.8156 -9.9133,13.837 -0.75846,1.7105 -4.4872,5.6074 -5.9732,15.915 z" />
      <path
         id="path6772"
         d="m 207.92,597.8 c 0.31336,-6.0018 2.2513,-9.8915 5.0654,-15.029 2.3133,-4.2237 6.2602,-9.4041 9.7738,-12.198 0,0 -7.18,8.0675 -9.2597,12.663 -0.70846,1.5654 -4.1914,5.1315 -5.5794,14.564 z"
         sodipodi:nodetypes="cscsc"
         style="fill:#000000;stroke-width:0"
         inkscape:connector-curvature="0" />
      <path
         id="path6774"
         sodipodi:nodetypes="cscsc"
         style="fill:#000000;stroke-width:0"
         inkscape:connector-curvature="0"
         d="m 202.48,596 c 0.21157,-4.7376 1.52,-7.8081 3.42,-11.864 1.5619,-3.334 4.2267,-7.4233 6.599,-9.6288 0,0 -4.7152,6.5009 -6.1194,10.128 -0.47834,1.2357 -3.0288,4.9788 -3.8997,11.364 z" />
      <path
         id="path6776"
         d="m 205.2,596.94 c 0.26305,-5.4403 1.8899,-8.966 4.2521,-13.623 1.9419,-3.8285 5.255,-8.5243 8.2045,-11.057 0,0 -6.0272,7.3128 -7.773,11.478 -0.59471,1.4189 -3.5184,4.6514 -4.6836,13.202 z"
         sodipodi:nodetypes="cscsc"
         style="fill:#000000;stroke-width:0"
         inkscape:connector-curvature="0" />
      <path
         id="path6778"
         sodipodi:nodetypes="cscsc"
         style="fill:#000000;stroke-width:0"
         inkscape:connector-curvature="0"
         d="m 248.72,605.08 c 0.37836,-7.045 3.093,-13.975 6.4907,-20.006 2.7932,-4.9578 7.5586,-11.039 11.801,-14.318 0,0 -8.6693,9.4698 -11.18,14.864 -0.8554,1.8375 -5.4355,8.3876 -7.1114,19.46 z" />
      <path
         id="path6780"
         d="m 197.04,594.5 c 0.13634,-3.415 0.97956,-5.6283 2.204,-8.5518 1.0065,-2.4033 2.7238,-5.351 4.2526,-6.9407 0,0 -2.9252,4.7893 -3.8301,7.4041 -0.30825,0.89071 -2.0226,2.721 -2.6265,8.0884 z"
         sodipodi:nodetypes="cscsc"
         style="fill:#000000;stroke-width:0"
         inkscape:connector-curvature="0" />
      <path
         id="path6782"
         sodipodi:nodetypes="cscsc"
         style="fill:#000000;stroke-width:0"
         inkscape:connector-curvature="0"
         d="m 199.76,595.63 c 0.1799,-4.2003 1.2925,-6.9225 2.908,-10.518 1.3281,-2.9559 3.5939,-6.5814 5.6111,-8.5367 0,0 -3.8568,5.7786 -5.0508,8.9946 -0.40673,1.0955 -2.6714,3.4587 -3.4683,10.06 z" />
      <path
         id="path6784"
         sodipodi:nodetypes="cscsc"
         style="fill:#000000;stroke-width:0"
         inkscape:connector-curvature="0"
         d="m 191.33,593.51 c 0.0887,-2.3775 0.63761,-3.9184 1.4346,-5.9537 0.65516,-1.6732 1.773,-3.7253 2.7681,-4.8321 0,0 -1.904,3.3343 -2.493,5.1547 -0.20064,0.62011 -1.3165,1.8943 -1.7096,5.6311 z" />
      <path
         id="path6786"
         d="m 194.51,593.17 c 0.0957,-2.4944 0.6879,-4.1111 1.5477,-6.2465 0.70683,-1.7554 1.9128,-3.9085 2.9864,-5.0697 0,0 -2.0542,3.4983 -2.6897,5.4082 -0.21646,0.6506 -1.4203,1.9875 -1.8444,5.908 z"
         sodipodi:nodetypes="cscsc"
         style="fill:#000000;stroke-width:0"
         inkscape:connector-curvature="0" />
      <path
         id="path6788"
         d="m 188.07,593.04 c 0.0845,-2.1145 0.60743,-3.4849 1.3667,-5.295 0.62417,-1.488 1.6891,-3.3132 2.6371,-4.2975 0,0 -1.8139,2.9654 -2.3751,4.5844 -0.19115,0.5515 -1.2542,1.6848 -1.6287,5.0081 z"
         sodipodi:nodetypes="cscsc"
         style="fill:#000000;stroke-width:0"
         inkscape:connector-curvature="0" />
      <path
         id="path6790"
         d="m 247.96,603.9 c -5.0069,-4.6151 -8.5819,-11.031 -11.097,-17.443 -2.0671,-5.2716 -3.8304,-12.81 -3.8176,-18.215 0,0 2.0268,12.74 4.58,18.052 0.86976,1.8098 3.0879,9.4872 10.334,17.607 z"
         sodipodi:nodetypes="cscsc"
         style="fill:#000000;stroke-width:0"
         inkscape:connector-curvature="0" />
      <path
         id="path6792"
         sodipodi:nodetypes="cscsc"
         style="fill:#000000;stroke-width:0"
         inkscape:connector-curvature="0"
         d="m 251.01,604.96 c -5.2072,-4.8296 -8.9252,-11.544 -11.54,-18.254 -2.1498,-5.5166 -3.9837,-13.406 -3.9703,-19.062 0,0 2.1078,13.332 4.7632,18.891 0.90456,1.8939 3.2115,9.9281 10.748,18.425 z" />
      <path
         id="path6794"
         d="m 256.19,604.96 c -5.2962,-4.9154 -9.0778,-11.749 -11.738,-18.578 -2.1866,-5.6146 -4.0518,-13.644 -4.0382,-19.401 0,0 2.1439,13.568 4.8446,19.227 0.92002,1.9275 3.2664,10.104 10.931,18.752 z"
         sodipodi:nodetypes="cscsc"
         style="fill:#000000;stroke-width:0"
         inkscape:connector-curvature="0" />
      <path
         id="path6796"
         sodipodi:nodetypes="cscsc"
         style="fill:#000000;stroke-width:0"
         inkscape:connector-curvature="0"
         d="m 253.27,605.09 c -5.1405,-4.881 -8.8108,-11.667 -11.392,-18.449 -2.1223,-5.5754 -3.9326,-13.549 -3.9194,-19.265 0,0 2.0808,13.474 4.7022,19.093 0.89295,1.9141 3.1703,10.034 10.61,18.621 z" />
      <path
         id="path6798"
         d="m 244.91,604.3 c -4.8066,-4.5893 -8.2386,-10.969 -10.653,-17.346 -1.9844,-5.2422 -3.6772,-12.739 -3.6649,-18.114 0,0 1.9457,12.669 4.3968,17.952 0.83496,1.7997 2.9644,9.4343 9.9207,17.508 z"
         sodipodi:nodetypes="cscsc"
         style="fill:#000000;stroke-width:0"
         inkscape:connector-curvature="0" />
      <path
         id="path6800"
         sodipodi:nodetypes="cscsc"
         style="fill:#000000;stroke-width:0"
         inkscape:connector-curvature="0"
         d="m 258.64,604.43 c -5.2962,-4.9154 -9.0778,-11.749 -11.738,-18.578 -2.1866,-5.6146 -4.0518,-13.644 -4.0382,-19.401 0,0 2.1439,13.568 4.8446,19.227 0.92002,1.9275 3.2664,10.104 10.931,18.752 z" />
      <path
         id="path6802"
         d="m 260.43,604.37 c -5.0737,-4.8296 -8.6964,-11.544 -11.245,-18.254 -2.0947,-5.5166 -3.8815,-13.406 -3.8685,-19.062 0,0 2.0538,13.332 4.6411,18.891 0.88136,1.8939 3.1291,9.9281 10.472,18.425 z"
         sodipodi:nodetypes="cscsc"
         style="fill:#000000;stroke-width:0"
         inkscape:connector-curvature="0" />
      <path
         id="path6804"
         sodipodi:nodetypes="cscsc"
         style="fill:#000000;stroke-width:0"
         inkscape:connector-curvature="0"
         d="m 263.08,603.7 c -5.1405,-4.8296 -8.8108,-11.544 -11.392,-18.254 -2.1223,-5.5166 -3.9326,-13.406 -3.9194,-19.062 0,0 2.0808,13.332 4.7022,18.891 0.89295,1.8939 3.1703,9.9281 10.61,18.425 z" />
      <path
         id="path6806"
         d="m 264.54,602.51 c -4.8066,-4.5293 -8.2386,-10.826 -10.653,-17.119 -1.9844,-5.1736 -3.6772,-12.572 -3.6649,-17.877 0,0 1.9457,12.503 4.3968,17.717 0.83497,1.7761 2.9644,9.3108 9.9207,17.279 z"
         sodipodi:nodetypes="cscsc"
         style="fill:#000000;stroke-width:0"
         inkscape:connector-curvature="0" />
      <path
         id="path6808"
         sodipodi:nodetypes="cscsc"
         style="fill:#000000;stroke-width:0"
         inkscape:connector-curvature="0"
         d="m 241.46,603.97 c -4.4728,-4.5378 -7.6664,-10.846 -9.9128,-17.152 -1.8466,-5.1834 -3.4218,-12.596 -3.4103,-17.911 0,0 1.8105,12.526 4.0914,17.75 0.77698,1.7795 2.7585,9.3284 9.2317,17.312 z" />
      <path
         id="path6810"
         d="m 237.62,603.97 c -4.0054,-4.3834 -6.8654,-10.477 -8.877,-16.568 -1.6537,-5.007 -3.0643,-12.167 -3.054,-17.301 0,0 1.6214,12.1 3.6639,17.146 0.69579,1.7189 2.4703,9.011 8.2671,16.723 z"
         sodipodi:nodetypes="cscsc"
         style="fill:#000000;stroke-width:0"
         inkscape:connector-curvature="0" />
      <path
         id="path6812"
         sodipodi:nodetypes="cscsc"
         style="fill:#000000;stroke-width:0"
         inkscape:connector-curvature="0"
         d="m 234.5,604.1 c -3.7829,-4.1689 -6.4839,-9.9645 -8.3838,-15.757 -1.5618,-4.762 -2.894,-11.572 -2.8843,-16.455 0,0 1.5313,11.508 3.4604,16.307 0.65713,1.6348 2.333,8.57 7.8078,15.905 z" />
      <path
         id="path6814"
         d="m 251.44,604.62 c 0.37836,-7.045 2.9604,-12.649 6.3582,-18.68 2.008,-2.2477 2.2582,-2.0121 0.62065,0.54566 -0.8554,1.8375 -5.3029,7.0618 -6.9788,18.134 z"
         sodipodi:nodetypes="cccc"
         style="fill:#000000;stroke-width:0"
         inkscape:connector-curvature="0" />
      <path
         id="path6816"
         sodipodi:nodetypes="cccc"
         style="fill:#000000;stroke-width:0"
         inkscape:connector-curvature="0"
         d="m 254.16,604.68 c 0.27249,-5.9133 2.1321,-10.617 4.579,-15.679 1.4461,-1.8866 1.6263,-1.6889 0.44698,0.45801 -0.61604,1.5423 -3.8191,5.9274 -5.026,15.221 z" />
      <path
         id="path6818"
         d="m 230.79,603.04 c -3.4936,-4.0831 -5.988,-9.7594 -7.7426,-15.433 -1.4423,-4.664 -2.6727,-11.334 -2.6637,-16.116 0,0 2.2037,11.83 2.4779,12.83 0.45199,1.6489 2.8724,11.535 7.9284,18.719 z"
         sodipodi:nodetypes="cscsc"
         style="fill:#000000;stroke-width:0"
         inkscape:connector-curvature="0" />
      <path
         id="path6820"
         sodipodi:nodetypes="cscsc"
         style="fill:#000000;stroke-width:0"
         inkscape:connector-curvature="0"
         d="m 227.07,602.18 c -3.0262,-3.9116 -5.187,-9.3493 -6.7068,-14.784 -1.2494,-4.468 -2.3152,-10.857 -2.3074,-15.439 0,0 1.9089,11.333 2.1464,12.291 0.39151,1.5796 2.4881,11.05 6.8678,17.932 z" />
      <path
         id="path6822"
         d="m 223.16,601.45 c -2.5366,-3.6713 -4.3478,-8.7751 -5.6218,-13.876 -1.0472,-4.1936 -1.9406,-10.191 -1.9341,-14.49 0,0 1.6001,10.637 1.7992,11.536 0.32817,1.4826 2.0856,10.372 5.7566,16.831 z"
         sodipodi:nodetypes="cscsc"
         style="fill:#000000;stroke-width:0"
         inkscape:connector-curvature="0" />
      <path
         id="path6824"
         sodipodi:nodetypes="cscsc"
         style="fill:#000000;stroke-width:0"
         inkscape:connector-curvature="0"
         d="m 266.33,601.65 c -4.5841,-4.4606 -7.8572,-10.662 -10.159,-16.86 -1.8926,-5.0952 -3.507,-12.382 -3.4952,-17.606 0,0 1.8556,12.313 4.1932,17.448 0.79631,1.7492 2.8272,9.1697 9.4614,17.017 z" />
      <path
         id="path6826"
         d="m 258.89,585.19 c -1.8926,-5.0952 -3.507,-12.382 -3.4952,-17.606 0,0 1.8556,12.313 4.1932,17.448 0.82523,1.3877 2.8275,8.2373 -0.69803,0.15766 z"
         sodipodi:nodetypes="cccc"
         style="fill:#000000;stroke-width:0"
         inkscape:connector-curvature="0" />
      <path
         id="path6828"
         sodipodi:nodetypes="cscsc"
         style="fill:#000000;stroke-width:0"
         inkscape:connector-curvature="0"
         d="m 219.78,600.59 c -2.225,-3.3882 -3.8138,-8.0984 -4.9312,-12.806 -0.91862,-3.8702 -1.7022,-9.4048 -1.6965,-13.373 0,0 1.4035,9.8163 1.5782,10.646 0.28786,1.3683 1.8294,9.5719 5.0496,15.533 z" />
      <path
         id="path6830"
         d="m 216.79,600.06 c -2.1138,-3.2338 -3.623,-7.7292 -4.6846,-12.223 -0.87268,-3.6938 -1.6171,-8.9761 -1.6117,-12.763 0,0 1.3333,9.3689 1.4992,10.161 0.27348,1.3059 1.7379,9.1356 4.797,14.825 z"
         sodipodi:nodetypes="cscsc"
         style="fill:#000000;stroke-width:0"
         inkscape:connector-curvature="0" />
      <path
         id="path6832"
         sodipodi:nodetypes="cscsc"
         style="fill:#000000;stroke-width:0"
         inkscape:connector-curvature="0"
         d="m 210.63,598 c -1.6909,-2.6589 -2.8983,-6.3553 -3.7475,-10.05 -0.6981,-3.0372 -1.2936,-7.3805 -1.2893,-10.495 0,0 1.0666,7.7034 1.1993,8.3549 0.21877,1.0738 1.3902,7.5117 3.8374,12.19 z" />
      <path
         id="path6834"
         d="m 213.15,598.66 c -1.7132,-2.9249 -2.9364,-6.7657 -3.7968,-10.83 -0.70729,-3.341 -1.3107,-8.3441 -1.3062,-11.77 0,0 1.2286,8.474 1.3631,9.1906 0.22165,1.1812 1.2606,8.2631 3.74,13.409 z"
         sodipodi:nodetypes="cscsc"
         style="fill:#000000;stroke-width:0"
         inkscape:connector-curvature="0" />
      <path
         id="path6836"
         sodipodi:nodetypes="cscsc"
         style="fill:#000000;stroke-width:0"
         inkscape:connector-curvature="0"
         d="m 208.04,597.14 c -1.6242,-2.3672 -2.7838,-5.4757 -3.5995,-8.765 -0.67054,-2.704 -1.2425,-6.7532 -1.2384,-9.5256 0,0 1.1648,6.8583 1.2923,7.4383 0.21012,0.95594 1.1951,6.6876 3.5456,10.852 z" />
      <path
         id="path6838"
         d="m 204.46,596.28 c -1.7126,-1.8858 -2.4272,-4.7018 -3.008,-7.526 -0.47749,-2.3218 -0.43999,-5.7986 -0.43699,-8.1792 0,0 0.82941,5.8889 0.92018,6.3869 0.14965,0.82082 0.85103,5.7423 2.5248,9.3183 z"
         sodipodi:nodetypes="cscsc"
         style="fill:#000000;stroke-width:0"
         inkscape:connector-curvature="0" />
      <path
         id="path6840"
         sodipodi:nodetypes="cscsc"
         style="fill:#000000;stroke-width:0"
         inkscape:connector-curvature="0"
         d="m 201.74,595.02 c -1.5316,-1.7152 -2.0589,-3.9674 -2.5728,-6.3507 -0.42245,-1.9592 -0.47782,-4.893 -0.47518,-6.9018 0,0 0.73384,4.9692 0.81416,5.3894 0.13237,0.69265 0.75293,4.8455 2.2338,7.863 z" />
      <path
         id="path6842"
         style="fill:#000000;stroke-width:0"
         d="m 196.37,593.69 c -0.75621,-1.4149 -1.4571,-3.2103 -1.8369,-5.1763 -0.3122,-1.6162 -0.41755,-4.0989 -0.41561,-5.756 0,0 0.54233,4.0992 0.60169,4.4458 0.0978,0.57138 0.55643,3.9972 1.6509,6.4864 z"
         inkscape:transform-center-x="-3.1557238"
         inkscape:transform-center-y="-0.37500648"
         inkscape:connector-curvature="0"
         sodipodi:nodetypes="cscsc" />
      <path
         id="path6844"
         style="fill:#000000;stroke-width:0"
         d="m 198.62,593.76 c -0.9333,-1.0834 -1.3724,-4.1078 -1.7746,-5.2388 -0.56229,-1.5814 -0.61258,-4.0364 -0.61051,-5.6935 0,0 0.82997,4.0992 0.89283,4.4458 0.10358,0.57138 0.79748,4.196 1.4923,6.4864 z"
         inkscape:transform-center-x="-3.3414452"
         inkscape:transform-center-y="-0.37500648"
         inkscape:connector-curvature="0"
         sodipodi:nodetypes="cscsc" />
      <path
         id="path6846"
         style="fill:#000000;stroke-width:0"
         d="m 193.32,592.9 c -0.55592,-1.2948 -1.3364,-2.8715 -1.6156,-4.6706 -0.22951,-1.479 -0.0418,-3.8172 -0.0404,-5.3336 0,0 0.39868,3.7512 0.44232,4.0684 0.0719,0.52287 0.40905,3.6578 1.2136,5.9358 z"
         inkscape:transform-center-x="-2.3198954"
         inkscape:transform-center-y="-0.34317197"
         inkscape:connector-curvature="0"
         sodipodi:nodetypes="cscsc" />
      <path
         id="path6848"
         style="fill:#000000;stroke-width:0"
         d="m 190.56,593.03 c -0.55592,-1.2948 -1.2701,-2.9378 -1.5493,-4.7369 -0.22951,-1.479 -0.10808,-3.7509 -0.10665,-5.2673 0,0 0.39868,3.7512 0.44232,4.0684 0.0719,0.52287 0.40905,3.6578 1.2136,5.9358 z"
         inkscape:transform-center-x="-2.3198954"
         inkscape:transform-center-y="-0.34317197"
         inkscape:connector-curvature="0"
         sodipodi:nodetypes="cscsc" />
      <path
         id="path6850"
         sodipodi:nodetypes="cccc"
         style="fill:#000000;stroke-width:0"
         inkscape:connector-curvature="0"
         d="m 261.38,583.12 c -1.4827,-4.3247 -2.7475,-10.509 -2.7383,-14.943 0,0 1.4538,10.451 3.2851,14.81 0.64652,1.1778 2.2152,6.9916 -0.54686,0.13382 z" />
      <path
         id="path6852"
         sodipodi:nodetypes="cscsc"
         style="fill:#000000;stroke-width:0"
         inkscape:connector-curvature="0"
         d="m 232.4,604.27 c 0.42103,-7.6223 3.4418,-15.12 7.2226,-21.645 3.1081,-5.364 8.4109,-11.943 13.132,-15.491 0,0 -9.6468,10.246 -12.441,16.082 -0.95186,1.988 -6.0484,9.0749 -7.9132,21.055 z" />
      <path
         id="path6854"
         d="m 226.96,603.4 c 0.43654,-7.8147 3.3034,-14.574 7.2236,-21.263 3.2226,-5.4995 8.7208,-12.245 13.616,-15.883 0,0 -10.002,10.504 -12.899,16.488 -0.98693,2.0382 -6.0061,8.3759 -7.9396,20.658 z"
         sodipodi:nodetypes="cscsc"
         style="fill:#000000;stroke-width:0"
         inkscape:connector-curvature="0" />
    </g>
    <g
       id="g6856"
       transform="matrix(0.03513955,0.07382611,-0.08161375,0.03178651,166.99135,2.8693422)">
      <path
         id="path6858"
         style="fill:#ffffff;stroke:#000000;stroke-width:0.8;stroke-linecap:round"
         d="m 339.31,719.57 c 0,0 -3.375,-2.4375 -5.4375,-2.3438 -2.0625,0.0937 -5.7188,1.7812 -5.3438,5.3438 0.375,3.5625 -0.1875,5.0625 1.6875,7.0312 1.875,1.9688 5.3438,2.7188 7.5,1.4062 2.1562,-1.3125 5.5512,-3.4469 5.4375,-3.9844 -0.99172,-1.4734 -2.6572,-3.4787 -3.8438,-7.4531 z"
         sodipodi:nodetypes="csssscc"
         inkscape:connector-curvature="0"
         transform="matrix(0.39546,-0.91848,0.91848,0.39546,-706.06,759.25)" />
      <g
         id="g6860">
        <path
           id="path6862"
           style="fill:#000000"
           d="m 91.309,743.66 c 2.3468,-7.0853 2.5219,-11.231 2.46,-11.028 l 1.0062,-0.17701 c -0.24598,2.1152 -0.41167,3.8183 -1.0559,5.8814 -0.4605,1.3074 -2.4103,5.3237 -2.4103,5.3237 z"
           inkscape:transform-center-x="0.46403882"
           inkscape:transform-center-y="-1.1175451"
           inkscape:connector-curvature="0"
           sodipodi:nodetypes="ccccc" />
        <path
           id="path6864"
           sodipodi:nodetypes="ccccc"
           style="fill:#000000"
           inkscape:connector-curvature="0"
           d="m 89.087,742.91 c 2.7718,-6.5759 3.2256,-9.742 3.2941,-10.197 l 0.78144,-0.0435 c -0.42785,2.014 -0.48863,3.0904 -1.2613,5.0095 -0.53559,1.2104 -2.8142,5.2313 -2.8142,5.2313 z" />
        <path
           id="path6866"
           sodipodi:nodetypes="ccccc"
           style="fill:#000000"
           inkscape:connector-curvature="0"
           d="m 86.528,741.2 c 3.5431,-5.3141 4.4602,-8.4942 4.4602,-8.4942 l 1.0014,0.009 c -0.71654,1.6788 -1.4322,3.1049 -2.4345,4.6601 -0.67439,0.97503 -3.027,3.8256 -3.027,3.8256 z" />
        <path
           id="path6868"
           style="fill:#000000"
           d="m 94.617,743.73 c 1.3412,-7.3423 0.98661,-11.33 0.97136,-11.413 l 0.94084,-0.21459 c 0.0498,2.1288 0.08818,3.8889 -0.26365,6.0214 -0.27468,1.3587 -1.6486,5.6066 -1.6486,5.6066 z"
           inkscape:transform-center-x="0.56946751"
           inkscape:transform-center-y="-1.0630863"
           inkscape:connector-curvature="0"
           sodipodi:nodetypes="ccccc" />
        <path
           id="path6870"
           d="m 85.202,739.3 c 3.7733,-4.9598 4.4231,-6.5708 4.1648,-6.682 l 0.79836,-0.0534 c -0.71654,1.6788 -1.7462,3.1228 -2.8498,4.5579 -0.67439,0.97503 -2.1133,2.1775 -2.1133,2.1775 z"
           sodipodi:nodetypes="ccccc"
           style="fill:#000000"
           inkscape:connector-curvature="0" />
      </g>
    </g>
    <g
       id="g6872"
       transform="matrix(0.08882543,0.00216508,-0.00239346,0.08034963,102.73767,-26.144106)">
      <path
         id="path6874"
         sodipodi:nodetypes="ccccc"
         style="fill:#000000"
         inkscape:connector-curvature="0"
         d="m 86.252,758.56 c 5.3975,-7.6201 7.3298,-12.25 7.3298,-12.25 l 1.0141,-0.0249 c -1.203,2.4232 -2.1708,4.5288 -3.7073,6.7603 -1.0206,1.3972 -4.6367,5.5144 -4.6367,5.5144 z" />
      <path
         id="path6876"
         sodipodi:nodetypes="ccccc"
         style="fill:#000000"
         inkscape:connector-curvature="0"
         d="m 83.963,757.16 c 4.2168,-6.6431 5.6605,-10.901 5.6605,-10.901 l 1.0866,-0.003 c -0.86694,2.0898 -1.5842,3.7554 -2.7783,5.6989 -0.80178,1.2194 -3.9688,5.205 -3.9688,5.205 z" />
      <path
         id="path6878"
         sodipodi:nodetypes="ccccc"
         style="fill:#000000"
         inkscape:connector-curvature="0"
         d="m 81.692,754.78 c 3.5431,-5.3141 4.482,-8.6634 4.482,-8.6634 l 1.0597,0.11018 c -0.71654,1.6788 -1.5124,3.1724 -2.5147,4.7277 -0.67439,0.97503 -3.027,3.8256 -3.027,3.8256 z" />
      <path
         id="path6880"
         d="m 79.614,751.93 c 2.7832,-4.1097 3.2716,-5.9377 3.2716,-5.9377 l 0.86544,0.048 c -0.51296,1.2935 -1.2402,2.5171 -2.0233,3.7194 -0.53278,0.75433 -2.1137,2.1702 -2.1137,2.1702 z"
         sodipodi:nodetypes="ccccc"
         style="fill:#000000"
         inkscape:connector-curvature="0" />
    </g>
    <g
       id="g6882"
       transform="matrix(0.08885741,0,0,0.08037857,100.83435,-25.977723)">
      <path
         id="path6884"
         d="m 45.187,747.62 c 4.906,-4.8697 7.5132,-9.1168 7.5132,-9.1168 l 0.98874,0.38252 c -1.1403,1.6229 -1.973,2.8494 -3.3736,4.2818 -0.92487,0.8884 -5.1283,4.4525 -5.1283,4.4525 z"
         sodipodi:nodetypes="ccccc"
         style="fill:#000000"
         inkscape:connector-curvature="0" />
      <path
         id="path6886"
         sodipodi:nodetypes="ccccc"
         style="fill:#000000"
         inkscape:connector-curvature="0"
         d="m 43.835,745.57 c 3.7864,-3.2092 7.4851,-7.7509 7.4851,-7.7509 l 0.6912,0.38347 c -0.84211,1.1078 -1.594,2.107 -2.6717,3.0543 -0.71612,0.58315 -5.5046,4.3131 -5.5046,4.3131 z" />
      <path
         id="path6888"
         sodipodi:nodetypes="ccccc"
         style="fill:#000000"
         inkscape:connector-curvature="0"
         d="m 47.267,749.82 c 5.5574,-6.8501 7.135,-10.733 7.135,-10.733 l 1.0761,0.38453 c -1.2625,2.2123 -2.3694,4.0206 -3.9535,6.0296 -1.0494,1.2539 -4.2576,4.3191 -4.2576,4.3191 z" />
      <path
         id="path6890"
         d="m 42.289,741.91 c 3.5693,-1.9089 7.0559,-4.6102 7.0559,-4.6102 l 0.65158,0.22809 c -0.79383,0.65894 -1.5026,1.2533 -2.5185,1.8167 -0.67506,0.34686 -5.189,2.5654 -5.189,2.5654 z"
         sodipodi:nodetypes="ccccc"
         style="fill:#000000"
         inkscape:connector-curvature="0" />
    </g>
    <path
       id="path6892"
       sodipodi:nodetypes="csscssccccsscsscccscsscssccccsscsscssssssc"
       style="fill:#000000;stroke-width:0.0845121"
       inkscape:connector-curvature="0"
       d="m 101.48922,30.898152 c 0,2e-6 0.59505,0.286944 1.06629,0.627957 0.47123,0.341015 0.7928,0.517205 1.01075,0.565158 0.21795,0.04796 0.21937,0.04772 0.21937,0.04772 0,10e-7 -0.32461,0.05184 -0.7664,-0.108013 -0.23408,-0.0847 -0.63297,-0.377289 -0.7775,-0.484779 -0.1263,-0.09393 -0.6942,-0.35668 -0.6942,-0.35668 0.14685,0.124297 0.59971,0.349783 1.01911,0.66563 0.59936,0.407222 1.20793,0.369244 1.20793,0.369244 l -0.008,0.05777 c 0,2e-6 -0.61652,0.07391 -0.85802,-0.03266 -0.34656,-0.15292 -0.48147,-0.240107 -0.64977,-0.366727 -0.26582,-0.199982 -0.66921,-0.361704 -0.66921,-0.361704 0,-1e-6 0.48145,0.326048 0.63588,0.437059 0.14331,0.103013 0.46398,0.309031 0.60535,0.351656 0.38249,0.115335 0.93575,0.09043 0.93575,0.09043 -0.36914,0.08103 -0.66696,0.06484 -1.05243,0.04772 -0.1826,-0.01066 -0.54147,0.02763 -0.54147,0.02763 0,-2e-6 0.35879,0.03285 0.54147,0.03014 0.26411,-0.0039 0.78503,0.003 1.02604,0.01256 -0.21048,0.0019 -0.69473,0.01565 -0.94269,0.09043 -0.14136,0.04263 -0.46203,0.248643 -0.60534,0.351656 -0.15443,0.111011 -0.63588,0.437058 -0.63588,0.437058 0,0 0.4034,-0.161721 0.6692,-0.361703 0.16831,-0.12662 0.30322,-0.213807 0.64977,-0.366727 0.24151,-0.106566 0.85803,-0.03266 0.85803,-0.03266 l 0.008,0.05777 c 0,0 -0.60856,-0.0405 -1.20793,0.366728 -0.41938,0.315855 -0.87224,0.543849 -1.01911,0.668146 0,0 0.5679,-0.262741 0.6942,-0.35668 0.14453,-0.107498 0.54342,-0.402591 0.7775,-0.487295 0.44179,-0.159849 0.7664,-0.105496 0.7664,-0.105496 0,0 -10e-4,-2.43e-4 -0.21937,0.04772 -0.21795,0.04796 -0.53952,0.224143 -1.01076,0.565158 -0.47123,0.341014 -1.06628,0.627957 -1.06628,0.627957 0,0 0.32392,0.0018 1.16625,-0.600331 0.85132,-0.60853 1.18847,-0.557626 1.18847,-0.557626 -0.0144,-0.125423 -0.0294,-0.428491 -0.0306,-0.311467 -2.6e-4,0.03129 0.008,-0.06725 0.008,-0.07033 -0.005,-0.08948 0.0452,-0.327124 0.0611,-0.424495 0,2e-6 -0.3427,0.0509 -1.19407,-0.557627 -0.84232,-0.602107 -1.16624,-0.600331 -1.16624,-0.600331 z" />
  </g>
</svg>
