<?xml version="1.0" encoding="UTF-8" standalone="no"?>
<svg
   sodipodi:docname="fox.svg"
   inkscape:version="1.4.2 (ebf0e940d0, 2025-05-08)"
   id="svg3019"
   version="1.1"
   viewBox="0 0 26.458334 15.345835"
   height="58"
   width="100"
   xmlns:inkscape="http://www.inkscape.org/namespaces/inkscape"
   xmlns:sodipodi="http://sodipodi.sourceforge.net/DTD/sodipodi-0.dtd"
   xmlns="http://www.w3.org/2000/svg"
   xmlns:svg="http://www.w3.org/2000/svg"
   xmlns:rdf="http://www.w3.org/1999/02/22-rdf-syntax-ns#"
   xmlns:cc="http://creativecommons.org/ns#"
   xmlns:dc="http://purl.org/dc/elements/1.1/">
  <defs
     id="defs3013" />
  <sodipodi:namedview
     inkscape:window-maximized="1"
     inkscape:window-y="32"
     inkscape:window-x="0"
     inkscape:window-height="1131"
     inkscape:window-width="1920"
     fit-margin-bottom="0"
     fit-margin-right="0"
     fit-margin-left="0"
     fit-margin-top="0"
     showgrid="false"
     inkscape:document-rotation="0"
     inkscape:current-layer="layer1"
     inkscape:document-units="mm"
     inkscape:cy="-4.7499998"
     inkscape:cx="-0.99999995"
     inkscape:zoom="4.0000002"
     inkscape:pageshadow="2"
     inkscape:pageopacity="0.0"
     borderopacity="1.0"
     bordercolor="#666666"
     pagecolor="#ffffff"
     id="base"
     units="px"
     inkscape:showpageshadow="2"
     inkscape:pagecheckerboard="0"
     inkscape:deskcolor="#d1d1d1" />
  <metadata
     id="metadata3016">
    <rdf:RDF>
      <cc:Work
         rdf:about="">
        <dc:format>image/svg+xml</dc:format>
        <dc:type
           rdf:resource="http://purl.org/dc/dcmitype/StillImage" />
        <dc:title />
      </cc:Work>
    </rdf:RDF>
  </metadata>
  <g
     transform="translate(-50.567649,-61.93607)"
     id="layer1"
     inkscape:groupmode="layer"
     inkscape:label="Calque 1">
    <g
       id="g2920"
       transform="matrix(0.26454738,0,0,0.26686026,37.545283,-6.9646861)">
      <g
         transform="translate(0.76334)"
         id="g2914">
        <path
           id="path546-3"
           d="m 98.47332,308.19681 v 7.5 l -50.000001,-25 v -7.5 z"
           fill="#bb8d5d" />
        <path
           id="path548-6"
           d="m 98.47332,315.69681 v -7.5 l 50,-25 v 7.5 z"
           fill="#9e7758" />
      </g>
      <path
         id="path208"
         d="m 49.23666,283.19681 50,-25 50,25 -50,25 z"
         fill="#8bb54a" />
    </g>
    <g
       id="layer1-3"
       style="fill:#c64600"
       transform="matrix(0.03066836,0,0,0.03360885,57.476622,61.549003)">
      <path
         style="fill:#c64600"
         d="m 178.46543,355.5207 c -0.59,-0.174 -1.73,-0.876 -2.53,-1.56 l -1.45,-1.244 h -11.3 -11.29 l -0.75,-0.954 c -0.97,-1.234 -0.76,-2.068 1.26,-4.9 l 1.59,-2.22 -1.18,-1.343 c -4.42,-5.018 -9.76,-13.532 -13.14,-20.921 -5.01,-10.982 -7.74,-22.959 -7.68,-33.691 0.1,-12.085 4.85,-22.832 14.41,-32.396 l 3.62,-3.622 -0.38,-2.805 c -0.21,-1.542 -0.39,-5.9 -0.4,-9.684 0,-7.77 0.56,-12.483 2.29,-18.621 l 1.05,-3.748 -0.81,-0.618 c -0.45,-0.34 -2.8,-1.811 -5.23,-3.269 -12.28,-7.386 -23.37,-10.797 -36.98,-11.375 -8.74,-0.37 -8.73,-0.427 1.45,-10.505 8.24,-8.158 11.79,-12.261 13.68,-15.809 1.08,-2.013 1.12,-2.221 0.74,-3.837 -0.66,-2.883 -2.86,-8.427 -4.67,-11.813 -1.77,-3.281 -2.07,-4.466 -1.29,-4.948 0.24,-0.149 2.15,-0.234 4.25,-0.189 2.1,0.05 3.95,0 4.13,-0.11 0.17,-0.106 -0.29,-1.102 -1.03,-2.213 -4.48,-6.786 -9.34,-16.455 -11.3,-22.456 -2.79,-8.584 -3.9,-16.204 -3.9,-26.786 0,-9.244004 1.08,-19.247004 3.65,-33.847004 1.32,-7.506 1.65,-8.169 4.06,-8.169 1.04,0 2.41,0.609 5.91,2.614 11.63,6.684 25.9,15.362 31.54,19.189 12.72,8.64 21.12,17.208004 27.34,27.908004 0.32,0.545 1.22,0.04 7.81,-4.327 7.72,-5.127 9.28,-6.065 10.09,-6.065 0.6,0 3.67,1.837 11.3,6.762 3.25,2.102 6.03,3.813 6.17,3.804 0.14,-0.01 1.13,-1.399 2.2,-3.087 5.4299,-8.599 13.1899,-16.384004 23.4499,-23.531004 9.34,-6.511 36.95,-22.991 39.09,-23.34 0.92,-0.148 1.4,0 2.13,0.638 0.83,0.734 1.04,1.422 1.83,5.946 2.42,13.945 3.49,25.704 3.24,35.573004 -0.22,8.569 -0.83,13.698 -2.38,20.149 -1.44,5.947 -2.77,9.139 -8.49,20.386 -2.7,5.286 -4.9,9.85 -4.9,10.143 0,0.441 0.65,0.532 3.81,0.532 5.46,0 5.79,0.564 2.72,4.647 -2.96,3.93 -4.94,8.081 -4.94,10.336 0,2.281 0.17,2.503 9.36,12.015 9.38,9.719 14.79,16.574 14.8,18.762 0,1.156 -1.02,1.512 -4.34,1.512 -10.24,0 -21.69,2.565 -30.93,6.933 -6.11,2.884 -12.74,6.884 -12.49,7.531 0.11,0.291 0.58,1.969 1.03,3.729 1.33,5.194 1.7,9.719 1.49,18.366 l -0.19,7.807 2.7,-2.827 c 11.76,-12.326 25.34,-19.14 41.32,-20.73 5.05,-0.502 7.19,-0.384 7.34,0.405 0.1,0.316 -0.99,2.09 -2.33,3.941 -4.3,5.936 -6.85,11.775 -7.84,17.964 -0.58,3.654 -0.26,10.788 0.69,15.266 0.6,2.842 4.51,17.64 5.16,19.521 0.1,0.273 1.04,-0.719 2.27,-2.37 3.1,-4.189 6.98,-8.155 7.97,-8.155 0.45,0 0.9,0.148 1.02,0.33 0.11,0.181 -0.19,2.284 -0.68,4.674 -1.03,5.134 -1.83,12.808 -2.12,20.396 -0.12,3.007 -0.38,6.976 -0.58,8.819 -1.37,12.49 -6.32,23.29 -14.41,31.437 -8.87,8.937 -19.33,13.896 -34.26,16.241 -4.04,0.634 -6.8,0.769 -18.67,0.912 l -13.93,0.168 -1.28,1.155 c -2.89,2.61 -4.79,2.415 -10.0599,-1.036 -2.73,-1.788 -3.56,-2.183 -3.95,-1.864 -0.71,0.591 -22.89,0.598 -23.91,0.01 -0.66,-0.375 -1.12,-0.192 -3.84,1.513 -4.99,3.13 -6.12,3.544 -8.13,2.953 z m -5.81,-8.584 c 0,-0.07 -1.42,-5.671 -3.15,-12.436 -3.32,-12.917 -9.35,-38.049 -14.14,-58.848 -1.56,-6.781 -2.9,-12.385 -2.97,-12.454 -0.1,-0.07 -1.2,1.109 -2.51,2.616 -9.72,11.147 -11.48,22.101 -6.45,40.159 3.85,13.831 11.72,27.338 20.44,35.102 3.32,2.954 8.78,6.6 8.78,5.861 z m 8.61,-7.276 c 0.3,-3.394 0.8,-10.456 1.09,-15.695 0.3,-5.239 0.78,-13.017 1.07,-17.286 1.18,-17.294 1.29,-19.483 1.17,-23.476 -0.1,-2.287 -0.1,-4.128 0,-4.09 0.28,0.28 3.08,10.622 3.78,13.927 2.07,9.911 2.6,21.093 1.86,39.453 l -0.29,7.117 2.76,-1.034 c 4.17,-1.563 7.87,-2.218 11.04,-1.954 2.92,0.243 6.63,1.169 9.33,2.326 0.94,0.403 1.78,0.661 1.87,0.572 0.1,-0.09 0,-3.466 -0.22,-7.505 -1.41,-27.41 -0.52,-39.588 3.94,-53.75 l 1.14,-3.604 v 5.779 c 0,3.178 0.37,10.382 0.78,16.008 0.87,11.875 1.68,24.903 2.17,34.925 0.5299,10.623 0.7799,13.939 1.0999,14.133 0.36,0.221 -0.1,1.942 6.98,-26.656 5.18,-20.937 13.3,-54.798 15.66,-65.264 1.01,-4.456 1.08,-13.821 0.15,-18.345 -0.73,-3.496 -2.59,-9.571 -3.19,-10.373 -0.35,-0.473 -1.68,0.671 -9.05,7.764 -10.9,10.488 -13.5199,12.866 -17.4499,15.813 -4.31,3.231 -8.23,5.077 -12.18,5.744 -2.82,0.476 -3.42,0.473 -5.87,-0.03 -6.56,-1.338 -10.98,-4.452 -24.64,-17.378 -6.29,-5.955 -13,-11.941 -14.01,-12.502 -0.5,-0.277 -0.68,-0.04 -1.13,1.523 -1.81,6.245 -2.44,16.19 -1.49,23.45 0.93,7.006 6.41,30.687 18.07,78.061 3.99,16.215 4.68,18.854 4.91,18.629 0.1,-0.06 0.36,-2.892 0.66,-6.286 z m 53.7499,4.284 c 13.27,-9.064 23.21,-25.962 26.98,-45.877 1.08,-5.736 1.08,-13.828 0,-17.786 -0.93,-3.368 -2.21,-6.345 -4.11,-9.499 -1.81,-3.026 -5.58,-7.408 -5.88,-6.849 -0.22,0.392 -1.29,4.835 -4.74,19.639 -6.19,26.579 -14.18,58.924 -15.25,61.701 -0.27,0.717 0.57,0.346 3.02,-1.329 z m 32.04,-1.988 c 13.1,-2.652 22.76,-9.393 29.06,-20.281 2.7,-4.673 4.67,-11.099 5.29,-17.238 0.62,-6.139 0.43,-6.978 -0.93,-4.196 -0.41,0.824 -1.35,2.553 -2.1,3.842 l -1.37,2.343 v -6.224 c 0,-8.515 -0.94,-13.396 -5.06,-26.155 -2.94,-9.118 -3.83,-12.369 -4.45,-16.228 -1.03,-6.431 -0.47,-13.861 1.4,-18.484 0.47,-1.166 0.79,-2.182 0.72,-2.259 -0.25,-0.248 -3.47,1.654 -5.96,3.519 -2.45,1.837 -6.44,6.139 -9.14,9.855 -0.82,1.127 -1.69,2.13 -1.94,2.229 -1.17,0.477 0.16,-7.36 1.7,-9.958 0.39,-0.67 0.65,-1.282 0.57,-1.36 -0.1,-0.08 -1.23,0.718 -2.57,1.769 -4.08,3.21 -7.11,7.107 -11.97,15.409 -0.1,0.104 0.91,1.454 2.16,2.998 3.19,3.954 6.54,10.759 7.98,16.214 1.06,4.003 1.12,4.589 1.13,10.76 0,7.466 -0.61,11.703 -3.02,20.251 -3.52,12.486 -10.8,26.383 -16.71,31.914 -2.23,2.084 -2.25,2.121 -1.3,2.29 2.55,0.457 12.17,-0.131 16.51,-1.01 z m -59.7299,-96.075 c 3.97,-1.395 6.27,-3.427 16.1999,-14.344 10.36,-11.39 19.42,-19.634 27.56,-25.099 8.07,-5.416 19.9,-10.453 28.13,-11.986 1.83,-0.34 3.39,-0.664 3.47,-0.72 0.1,-0.06 -1.52,-1.892 -3.55,-4.079 -8.4,-9.06 -11.09,-12.721 -13.04,-17.735 -0.94,-2.404 -1.13,-3.427 -1.28,-6.9 -0.32,-7.496 0.94,-11.525 8.02,-25.556 6.21,-12.286 7.62,-16.742 8.52,-26.811 0.62,-7.063 0,-24.073004 -0.97,-28.398004 -0.2,-0.845 -0.22,-0.851 -0.49,-0.15 -0.15,0.402 -1.1,4.53 -2.11,9.172 -5.25,24.147004 -10.08,34.227004 -20.37,42.503004 -5.35,4.308 -8.27,5.811 -10.07,5.184 -2.02,-0.703 -5.8,-7.019 -7.83,-13.09 -1.34,-3.985 -1.49,-5.777 -0.61,-7.481 1.42,-2.778 12.21,-16.252 28.75,-35.905004 3.08,-3.654 5.55,-6.686 5.48,-6.736 -0.18,-0.143 -12.27,7.33 -18.41,11.378 -7.18,4.728 -11.92,8.436 -16.23,12.674004 -5.75,5.655 -8.84,9.935 -13.1,18.159 l -2.5099,4.84 -7.39,-4.803 c -10.05,-6.533 -13.3,-8.582 -13.61,-8.582 -0.15,0 -2.93,1.721 -6.19,3.824 -9.93,6.407 -15.02,9.605 -15.12,9.503 0,-0.05 -0.89,-1.764 -1.86,-3.802 -4.36,-9.11 -9.74,-16.223 -16.76,-22.172004 -3.56,-3.011 -8.87,-6.698 -19.23,-13.346 -4.4,-2.819 -8.35,-5.454 -8.79,-5.855 -1.65,-1.523 -0.69,0.03 1.59,2.572 1.31,1.456 3.51,3.996 4.89,5.643 1.37,1.648 4.68,5.536 7.34,8.64 8.5,9.912004 16.26,20.320004 17.88,23.991004 0.86,1.945 0.73,3.14 -0.81,7.583 -1.98,5.671 -5.98,12.143 -8.15,13.172 -0.9,0.426 -1.48,0.486 -2.34,0.24 -4.44,-1.272 -14.06,-9.667 -18.17,-15.851 -4.38,-6.592 -7.07,-15.371 -10.99,-35.971004 -0.72,-3.8 -1.42,-6.62 -1.56,-6.35 -0.43,0.825 -1.73,9.414 -2.15,14.245 -0.48,5.450004 -0.2,16.335004 0.52,20.637004 1.61,9.609 3.89,14.892 12.24,28.434 2.38,3.861 4.84,8.132 5.47,9.49 2.77,5.954 2.33,10.698 -1.62,17.586 -3.19,5.558 -10.04,14.258 -14.32,18.176 l -2.31,2.119 1.35,0.222 c 12.52,2.059 25.38,8.117 37.28,17.564 6,4.761 10.22,8.866 18.22,17.711 4.2,4.656 8.64,9.38 9.84,10.497 3.7,3.413 7.93,6.02 10.75,6.62 2.17,0.464 6.13,0.156 8.44,-0.657 z m -8.56,-2.728 c -2.5,-1.161 -4.82,-3.645 -6.51,-6.966 -1.77,-3.479 -1.88,-5.724 -0.37,-7.3 1.58,-1.648 3.12,-1.933 10.4,-1.926 5.91,0.01 6.69,0.08 8.18,0.761 3.1,1.418 3.5,3.913 1.32,8.366 -1.59,3.253 -3.74,5.569 -6.39,6.894 -2.63,1.315 -4.09,1.353 -6.63,0.171 z m -11.78,-26.81 c -2.22,-7.032 -6.35,-12.86 -10.98,-15.486 -4.05,-2.291 -6.38,-3.983 -8.76,-6.343 -3.8,-3.764 -6.03,-6.926 -8.58,-12.189 -1.27,-2.62 -2.84,-5.417 -3.49,-6.216 -1.5,-1.83 -4.17,-3.561 -6.73,-4.353 -1.28,-0.397 -1.78,-0.688 -1.42,-0.828 1.15,-0.44 12.87,-1.017 16.18,-0.796 5.41,0.361 8.53,1.542 13.68,5.174 7.13,5.022 11.92,11.744 13.44,18.837 0.57,2.677 0.59,11.166 0,14.64 -0.52,3.24 -2.18,9.525 -2.51,9.525 -0.13,0 -0.51,-0.884 -0.85,-1.965 z m 28.05,-1.25 c -2.91,-11.737 -2.12,-22.769 2.13,-29.832 3.01,-4.989 8.1599,-9.677 13.6799,-12.453 4.72,-2.374 6.14,-2.662 12.72,-2.592 6.95,0.07 13.05,0.44 13.05,0.783 0,0.136 -0.59,0.46 -1.32,0.719 -4,1.425 -8.29,5.865 -11.11,11.489 -3.51,7.014 -8.26,12.31 -14.38,16.048 -2.04,1.244 -4.42,2.984 -5.31,3.866 -2.8999,2.904 -5.7399,7.644 -7.3999,12.365 -0.45,1.261 -0.91,2.412 -1.03,2.558 -0.13,0.145 -0.59,-1.182 -1.03,-2.951 z"
         id="path628" />
    </g>
  </g>
</svg>
